{
	"asset":{
		"generator":"Khronos glTF Blender I/O v4.2.69",
		"version":"2.0"
	},
	"extensionsUsed":[
		"KHR_lights_punctual",
		"KHR_materials_clearcoat",
		"KHR_materials_transmission",
		"KHR_materials_specular",
		"KHR_materials_ior"
	],
	"extensionsRequired":[
		"KHR_lights_punctual"
	],
	"extensions":{
		"KHR_lights_punctual":{
			"lights":[
				{
					"color":[
						1,
						1,
						1
					],
					"intensity":0.3978873577297384,
					"type":"point",
					"name":"Light"
				}
			]
		}
	},
	"scene":0,
	"scenes":[
		{
			"extras":{
				"uuid":"47e8aac4-d9cc-4fac-9ff9-584e07d1fbea",
				"assets reported":{},
				"assets used":{},
				"my_tool":{}
			},
			"name":"Scene",
			"nodes":[
				0,
				2,
				3
			]
		}
	],
	"nodes":[
		{
			"extensions":{
				"KHR_lights_punctual":{
					"light":0
				}
			},
			"name":"LIGHT - TURN",
			"rotation":[
				-0.7071068286895752,
				0,
				0,
				0.7071068286895752
			],
			"translation":[
				0,
				0.2679786682128906,
				0
			]
		},
		{
			"camera":0,
			"name":"Camera",
			"rotation":[
				-0.7071067690849304,
				0,
				0,
				0.7071068286895752
			],
			"scale":[
				8.601129531860352,
				8.601127624511719,
				8.601127624511719
			],
			"translation":[
				0,
				11.960211753845215,
				0
			]
		},
		{
			"children":[
				1
			],
			"name":"Empty",
			"scale":[
				0.029835321009159088,
				0.029835321009159088,
				0.029835321009159088
			]
		},
		{
			"mesh":0,
			"name":"Body25",
			"rotation":[
				1,
				0,
				0,
				7.549790126404332e-08
			],
			"scale":[
				0.0013860096223652363,
				0.0013860096223652363,
				0.0013860096223652363
			],
			"translation":[
				-0.027054131031036377,
				0.0014553070068359375,
				-0.002681910991668701
			]
		}
	],
	"cameras":[
		{
			"name":"Camera",
			"perspective":{
				"aspectRatio":1,
				"yfov":0.6911112070083618,
				"zfar":1000,
				"znear":0.10000000149011612
			},
			"type":"perspective"
		}
	],
	"materials":[
		{
			"doubleSided":true,
			"extensions":{
				"KHR_materials_clearcoat":{
					"clearcoatRoughnessFactor":0
				},
				"KHR_materials_transmission":{
					"transmissionFactor":1
				},
				"KHR_materials_specular":{
					"specularColorFactor":[
						2.0,
						2.0,
						2.0
					]
				},
				"KHR_materials_ior":{
					"ior":1
				}
			},
			"name":"Material__27",
			"pbrMetallicRoughness":{
				"baseColorFactor":[
					0.026086006313562393,
					0.026086006313562393,
					0.026086006313562393,
					1
				]
			}
		},
		{
			"doubleSided":true,
			"extensions":{
				"KHR_materials_clearcoat":{
					"clearcoatRoughnessFactor":0
				},
				"KHR_materials_transmission":{
					"transmissionFactor":1
				},
				"KHR_materials_specular":{
					"specularColorFactor":[
						2.0,
						2.0,
						2.0
					]
				},
				"KHR_materials_ior":{
					"ior":1.5199999809265137
				}
			},
			"name":"Material__28",
			"pbrMetallicRoughness":{
				"baseColorFactor":[
					0.9646999835968018,
					0.9646999835968018,
					0.9528999924659729,
					1
				],
				"metallicFactor":0,
				"roughnessFactor":0
			}
		},
		{
			"doubleSided":true,
			"extensions":{
				"KHR_materials_clearcoat":{
					"clearcoatRoughnessFactor":0
				},
				"KHR_materials_transmission":{
					"transmissionFactor":1
				},
				"KHR_materials_specular":{
					"specularColorFactor":[
						2.0,
						2.0,
						2.0
					]
				},
				"KHR_materials_ior":{
					"ior":1.5199999809265137
				}
			},
			"name":"Material__26",
			"pbrMetallicRoughness":{
				"baseColorFactor":[
					0.9294000267982483,
					0.8077999949455261,
					0.7646999955177307,
					1
				],
				"metallicFactor":0,
				"roughnessFactor":0
			}
		},
		{
			"doubleSided":true,
			"extensions":{
				"KHR_materials_clearcoat":{
					"clearcoatRoughnessFactor":0
				},
				"KHR_materials_transmission":{
					"transmissionFactor":1
				},
				"KHR_materials_specular":{
					"specularColorFactor":[
						2.0,
						2.0,
						2.0
					]
				}
			},
			"name":"Material__25.001",
			"pbrMetallicRoughness":{
				"baseColorFactor":[
					0.8278298377990723,
					0.10930266976356506,
					0,
					1
				],
				"roughnessFactor":0.2727273106575012
			}
		}
	],
	"meshes":[
		{
			"name":"Body25",
			"primitives":[
				{
					"attributes":{
						"POSITION":0,
						"NORMAL":1,
						"TEXCOORD_0":2
					},
					"indices":3,
					"material":0
				},
				{
					"attributes":{
						"POSITION":4,
						"NORMAL":5,
						"TEXCOORD_0":6
					},
					"indices":7,
					"material":1
				},
				{
					"attributes":{
						"POSITION":8,
						"NORMAL":9,
						"TEXCOORD_0":10
					},
					"indices":11,
					"material":2
				},
				{
					"attributes":{
						"POSITION":12,
						"NORMAL":13,
						"TEXCOORD_0":14
					},
					"indices":15,
					"material":3
				}
			]
		}
	],
	"accessors":[
		{
			"bufferView":0,
			"componentType":5126,
			"count":192,
			"max":[
				0.47284984588623047,
				0.30000075697898865,
				2.9285964965820312
			],
			"min":[
				-11.138023376464844,
				-2.2000012397766113,
				-7.260303974151611
			],
			"type":"VEC3"
		},
		{
			"bufferView":1,
			"componentType":5126,
			"count":192,
			"type":"VEC3"
		},
		{
			"bufferView":2,
			"componentType":5126,
			"count":192,
			"type":"VEC2"
		},
		{
			"bufferView":3,
			"componentType":5123,
			"count":360,
			"type":"SCALAR"
		},
		{
			"bufferView":4,
			"componentType":5126,
			"count":24,
			"max":[
				-3.9626502990722656,
				0.2999988794326782,
				2.8278965950012207
			],
			"min":[
				-5.099250316619873,
				-0.30000150203704834,
				2.037196397781372
			],
			"type":"VEC3"
		},
		{
			"bufferView":5,
			"componentType":5126,
			"count":24,
			"type":"VEC3"
		},
		{
			"bufferView":6,
			"componentType":5126,
			"count":24,
			"type":"VEC2"
		},
		{
			"bufferView":7,
			"componentType":5123,
			"count":36,
			"type":"SCALAR"
		},
		{
			"bufferView":8,
			"componentType":5126,
			"count":832,
			"max":[
				47.35186004638672,
				2.3000011444091797,
				6.490479469299316
			],
			"min":[
				-17.188037872314453,
				-5.699999809265137,
				-10.232723236083984
			],
			"type":"VEC3"
		},
		{
			"bufferView":9,
			"componentType":5126,
			"count":832,
			"type":"VEC3"
		},
		{
			"bufferView":10,
			"componentType":5126,
			"count":832,
			"type":"VEC2"
		},
		{
			"bufferView":11,
			"componentType":5123,
			"count":1368,
			"type":"SCALAR"
		},
		{
			"bufferView":12,
			"componentType":5126,
			"count":264,
			"max":[
				47.83751678466797,
				1.7999980449676514,
				8.165013313293457
			],
			"min":[
				-11.462482452392578,
				0.29999804496765137,
				-12.03498649597168
			],
			"type":"VEC3"
		},
		{
			"bufferView":13,
			"componentType":5126,
			"count":264,
			"type":"VEC3"
		},
		{
			"bufferView":14,
			"componentType":5126,
			"count":264,
			"type":"VEC2"
		},
		{
			"bufferView":15,
			"componentType":5123,
			"count":588,
			"type":"SCALAR"
		}
	],
	"bufferViews":[
		{
			"buffer":0,
			"byteLength":2304,
			"byteOffset":0,
			"target":34962
		},
		{
			"buffer":0,
			"byteLength":2304,
			"byteOffset":2304,
			"target":34962
		},
		{
			"buffer":0,
			"byteLength":1536,
			"byteOffset":4608,
			"target":34962
		},
		{
			"buffer":0,
			"byteLength":720,
			"byteOffset":6144,
			"target":34963
		},
		{
			"buffer":0,
			"byteLength":288,
			"byteOffset":6864,
			"target":34962
		},
		{
			"buffer":0,
			"byteLength":288,
			"byteOffset":7152,
			"target":34962
		},
		{
			"buffer":0,
			"byteLength":192,
			"byteOffset":7440,
			"target":34962
		},
		{
			"buffer":0,
			"byteLength":72,
			"byteOffset":7632,
			"target":34963
		},
		{
			"buffer":0,
			"byteLength":9984,
			"byteOffset":7704,
			"target":34962
		},
		{
			"buffer":0,
			"byteLength":9984,
			"byteOffset":17688,
			"target":34962
		},
		{
			"buffer":0,
			"byteLength":6656,
			"byteOffset":27672,
			"target":34962
		},
		{
			"buffer":0,
			"byteLength":2736,
			"byteOffset":34328,
			"target":34963
		},
		{
			"buffer":0,
			"byteLength":3168,
			"byteOffset":37064,
			"target":34962
		},
		{
			"buffer":0,
			"byteLength":3168,
			"byteOffset":40232,
			"target":34962
		},
		{
			"buffer":0,
			"byteLength":2112,
			"byteOffset":43400,
			"target":34962
		},
		{
			"buffer":0,
			"byteLength":1176,
			"byteOffset":45512,
			"target":34963
		}
	],
	"buffers":[
		{
			"byteLength":46688,
			"uri":"data:application/octet-stream;base64,"
		}
	]
}
