{
	"asset":{
		"generator":"Khronos glTF Blender I/O v4.2.69",
		"version":"2.0"
	},
	"extensionsUsed":[
		"KHR_lights_punctual",
		"KHR_materials_specular",
		"KHR_materials_ior"
	],
	"extensionsRequired":[
		"KHR_lights_punctual"
	],
	"extensions":{
		"KHR_lights_punctual":{
			"lights":[
				{
					"color":[
						1,
						1,
						1
					],
					"intensity":0.3978873577297384,
					"type":"point",
					"name":"Light"
				}
			]
		}
	},
	"scene":0,
	"scenes":[
		{
			"extras":{
				"uuid":"47e8aac4-d9cc-4fac-9ff9-584e07d1fbea",
				"assets reported":{},
				"assets used":{},
				"my_tool":{}
			},
			"name":"Scene",
			"nodes":[
				0,
				2,
				3
			]
		}
	],
	"nodes":[
		{
			"extensions":{
				"KHR_lights_punctual":{
					"light":0
				}
			},
			"name":"LIGHT - TURN",
			"rotation":[
				-0.7071068286895752,
				0,
				0,
				0.7071068286895752
			],
			"translation":[
				0,
				0.2679786682128906,
				0
			]
		},
		{
			"camera":0,
			"name":"Camera",
			"rotation":[
				-0.7071067690849304,
				0,
				0,
				0.7071068286895752
			],
			"scale":[
				8.601129531860352,
				8.601127624511719,
				8.601127624511719
			],
			"translation":[
				0,
				11.960211753845215,
				0
			]
		},
		{
			"children":[
				1
			],
			"name":"Empty",
			"scale":[
				0.029835321009159088,
				0.029835321009159088,
				0.029835321009159088
			]
		},
		{
			"mesh":0,
			"name":"HUMID SENSOR.001",
			"rotation":[
				-0.5463519096374512,
				0,
				0,
				0.8375557065010071
			]
		}
	],
	"cameras":[
		{
			"name":"Camera",
			"perspective":{
				"aspectRatio":1,
				"yfov":0.6911112070083618,
				"zfar":1000,
				"znear":0.10000000149011612
			},
			"type":"perspective"
		}
	],
	"materials":[
		{
			"doubleSided":true,
			"extensions":{
				"KHR_materials_specular":{
					"specularFactor":0
				},
				"KHR_materials_ior":{
					"ior":1.4499999284744263
				}
			},
			"name":"metal.001",
			"pbrMetallicRoughness":{
				"baseColorFactor":[
					0.7356582880020142,
					0.7356582880020142,
					0.7356582880020142,
					1
				],
				"roughnessFactor":0.5
			}
		},
		{
			"doubleSided":true,
			"extensions":{
				"KHR_materials_specular":{
					"specularFactor":0
				},
				"KHR_materials_ior":{
					"ior":1.4499999284744263
				}
			},
			"name":"plastico_preto",
			"pbrMetallicRoughness":{
				"baseColorFactor":[
					0,
					0,
					0,
					1
				],
				"metallicFactor":0.6000000238418579,
				"roughnessFactor":0.5
			}
		},
		{
			"doubleSided":true,
			"extensions":{
				"KHR_materials_specular":{
					"specularFactor":0
				},
				"KHR_materials_ior":{
					"ior":1.4499999284744263
				}
			},
			"name":"_BRANCO.008",
			"pbrMetallicRoughness":{
				"baseColorFactor":[
					0.800000011920929,
					0.800000011920929,
					0.800000011920929,
					1
				],
				"metallicFactor":0,
				"roughnessFactor":0.5
			}
		},
		{
			"doubleSided":true,
			"extensions":{
				"KHR_materials_specular":{
					"specularFactor":0
				},
				"KHR_materials_ior":{
					"ior":1.4499999284744263
				}
			},
			"name":"aluminio",
			"pbrMetallicRoughness":{
				"baseColorFactor":[
					0.5121598839759827,
					0.5121598839759827,
					0.5121598839759827,
					1
				],
				"roughnessFactor":0.5
			}
		},
		{
			"doubleSided":true,
			"extensions":{
				"KHR_materials_specular":{
					"specularFactor":0
				},
				"KHR_materials_ior":{
					"ior":1.4499999284744263
				}
			},
			"name":"Plastico_azul",
			"pbrMetallicRoughness":{
				"baseColorFactor":[
					0.017053969204425812,
					0.14400510489940643,
					0.28704431653022766,
					1
				],
				"metallicFactor":0,
				"roughnessFactor":0.5
			}
		},
		{
			"doubleSided":true,
			"extensions":{
				"KHR_materials_specular":{
					"specularFactor":0
				},
				"KHR_materials_ior":{
					"ior":1.4499999284744263
				}
			},
			"name":"pino_metal",
			"pbrMetallicRoughness":{
				"baseColorFactor":[
					0.6382716298103333,
					0.6382716298103333,
					0.6382716298103333,
					1
				],
				"roughnessFactor":0.5
			}
		},
		{
			"doubleSided":true,
			"extensions":{
				"KHR_materials_specular":{
					"specularFactor":0
				},
				"KHR_materials_ior":{
					"ior":1.4499999284744263
				}
			},
			"name":"zinza",
			"pbrMetallicRoughness":{
				"baseColorFactor":[
					0.2066866010427475,
					0.2066866010427475,
					0.2066866010427475,
					1
				],
				"metallicFactor":0.6330276131629944,
				"roughnessFactor":0.5
			}
		},
		{
			"doubleSided":true,
			"extensions":{
				"KHR_materials_specular":{
					"specularFactor":0
				},
				"KHR_materials_ior":{
					"ior":1.4499999284744263
				}
			},
			"name":"cor placa",
			"pbrMetallicRoughness":{
				"baseColorFactor":[
					0.00945062655955553,
					0.00945062655955553,
					0.00945062655955553,
					1
				],
				"metallicFactor":0,
				"roughnessFactor":0.5
			}
		},
		{
			"doubleSided":true,
			"extensions":{
				"KHR_materials_specular":{
					"specularFactor":0
				},
				"KHR_materials_ior":{
					"ior":1.4499999284744263
				}
			},
			"name":"metal_parafuso.003",
			"pbrMetallicRoughness":{
				"baseColorFactor":[
					0.7669180035591125,
					0.7752730250358582,
					0.8006550073623657,
					1
				],
				"roughnessFactor":0.5
			}
		},
		{
			"doubleSided":true,
			"extensions":{
				"KHR_materials_specular":{
					"specularFactor":0
				},
				"KHR_materials_ior":{
					"ior":1.4499999284744263
				}
			},
			"name":"plastico_preto.002",
			"pbrMetallicRoughness":{
				"baseColorFactor":[
					0.0010310000507161021,
					0.0010310000507161021,
					0.0010310000507161021,
					1
				],
				"metallicFactor":0.5,
				"roughnessFactor":0.5
			}
		}
	],
	"meshes":[
		{
			"name":"humid sensor.001",
			"primitives":[
				{
					"attributes":{
						"POSITION":0,
						"NORMAL":1,
						"TEXCOORD_0":2,
						"TEXCOORD_1":3
					},
					"indices":4,
					"material":0
				},
				{
					"attributes":{
						"POSITION":5,
						"NORMAL":6,
						"TEXCOORD_0":7,
						"TEXCOORD_1":8
					},
					"indices":9,
					"material":1
				},
				{
					"attributes":{
						"POSITION":10,
						"NORMAL":11,
						"TEXCOORD_0":12,
						"TEXCOORD_1":13
					},
					"indices":14,
					"material":2
				},
				{
					"attributes":{
						"POSITION":15,
						"NORMAL":16,
						"TEXCOORD_0":17,
						"TEXCOORD_1":18
					},
					"indices":19,
					"material":3
				},
				{
					"attributes":{
						"POSITION":20,
						"NORMAL":21,
						"TEXCOORD_0":22,
						"TEXCOORD_1":23
					},
					"indices":24,
					"material":4
				},
				{
					"attributes":{
						"POSITION":25,
						"NORMAL":26,
						"TEXCOORD_0":27,
						"TEXCOORD_1":28
					},
					"indices":29,
					"material":5
				},
				{
					"attributes":{
						"POSITION":30,
						"NORMAL":31,
						"TEXCOORD_0":32,
						"TEXCOORD_1":33
					},
					"indices":34,
					"material":6
				},
				{
					"attributes":{
						"POSITION":35,
						"NORMAL":36,
						"TEXCOORD_0":37,
						"TEXCOORD_1":38
					},
					"indices":39,
					"material":7
				},
				{
					"attributes":{
						"POSITION":40,
						"NORMAL":41,
						"TEXCOORD_0":42,
						"TEXCOORD_1":43
					},
					"indices":44,
					"material":8
				},
				{
					"attributes":{
						"POSITION":45,
						"NORMAL":46,
						"TEXCOORD_0":47,
						"TEXCOORD_1":48
					},
					"indices":49,
					"material":9
				}
			]
		}
	],
	"accessors":[
		{
			"bufferView":0,
			"componentType":5126,
			"count":19494,
			"max":[
				0.004215497989207506,
				-0.006589301396161318,
				0.0036215269938111305
			],
			"min":[
				-0.0040703811682760715,
				-0.017239436507225037,
				-0.0025352099910378456
			],
			"type":"VEC3"
		},
		{
			"bufferView":1,
			"componentType":5126,
			"count":19494,
			"type":"VEC3"
		},
		{
			"bufferView":2,
			"componentType":5126,
			"count":19494,
			"type":"VEC2"
		},
		{
			"bufferView":3,
			"componentType":5126,
			"count":19494,
			"type":"VEC2"
		},
		{
			"bufferView":4,
			"componentType":5123,
			"count":110922,
			"type":"SCALAR"
		},
		{
			"bufferView":5,
			"componentType":5126,
			"count":168,
			"max":[
				0.004009980708360672,
				-0.009017275646328926,
				0.0017805173993110657
			],
			"min":[
				-0.003937522880733013,
				-0.011679933406412601,
				-0.0009596198797225952
			],
			"type":"VEC3"
		},
		{
			"bufferView":6,
			"componentType":5126,
			"count":168,
			"type":"VEC3"
		},
		{
			"bufferView":7,
			"componentType":5126,
			"count":168,
			"type":"VEC2"
		},
		{
			"bufferView":8,
			"componentType":5126,
			"count":168,
			"type":"VEC2"
		},
		{
			"bufferView":9,
			"componentType":5123,
			"count":360,
			"type":"SCALAR"
		},
		{
			"bufferView":10,
			"componentType":5126,
			"count":3105,
			"max":[
				0.006126600783318281,
				-0.005216585472226143,
				-7.992330938577652e-05
			],
			"min":[
				-0.005895058158785105,
				-0.011860059574246407,
				-0.001109347678720951
			],
			"type":"VEC3"
		},
		{
			"bufferView":11,
			"componentType":5126,
			"count":3105,
			"type":"VEC3"
		},
		{
			"bufferView":12,
			"componentType":5126,
			"count":3105,
			"type":"VEC2"
		},
		{
			"bufferView":13,
			"componentType":5126,
			"count":3105,
			"type":"VEC2"
		},
		{
			"bufferView":14,
			"componentType":5123,
			"count":8232,
			"type":"SCALAR"
		},
		{
			"bufferView":15,
			"componentType":5126,
			"count":643,
			"max":[
				0.0023034398909658194,
				0.005437682382762432,
				0.0032084668055176735
			],
			"min":[
				-0.002254586201161146,
				-0.0007578604854643345,
				0.0013817073777318
			],
			"type":"VEC3"
		},
		{
			"bufferView":16,
			"componentType":5126,
			"count":643,
			"type":"VEC3"
		},
		{
			"bufferView":17,
			"componentType":5126,
			"count":643,
			"type":"VEC2"
		},
		{
			"bufferView":18,
			"componentType":5126,
			"count":643,
			"type":"VEC2"
		},
		{
			"bufferView":19,
			"componentType":5123,
			"count":2880,
			"type":"SCALAR"
		},
		{
			"bufferView":20,
			"componentType":5126,
			"count":16296,
			"max":[
				0.005817550700157881,
				0.008825313299894333,
				0.003756476566195488
			],
			"min":[
				-0.005774538032710552,
				-0.005970703437924385,
				-0.0015411227941513062
			],
			"type":"VEC3"
		},
		{
			"bufferView":21,
			"componentType":5126,
			"count":16296,
			"type":"VEC3"
		},
		{
			"bufferView":22,
			"componentType":5126,
			"count":16296,
			"type":"VEC2"
		},
		{
			"bufferView":23,
			"componentType":5126,
			"count":16296,
			"type":"VEC2"
		},
		{
			"bufferView":24,
			"componentType":5123,
			"count":95448,
			"type":"SCALAR"
		},
		{
			"bufferView":25,
			"componentType":5126,
			"count":226,
			"max":[
				0.0038616247475147247,
				-0.0041449544951319695,
				0.0006510065868496895
			],
			"min":[
				-0.0038108029402792454,
				-0.007194576319307089,
				-0.00219707190990448
			],
			"type":"VEC3"
		},
		{
			"bufferView":26,
			"componentType":5126,
			"count":226,
			"type":"VEC3"
		},
		{
			"bufferView":27,
			"componentType":5126,
			"count":226,
			"type":"VEC2"
		},
		{
			"bufferView":28,
			"componentType":5126,
			"count":226,
			"type":"VEC2"
		},
		{
			"bufferView":29,
			"componentType":5123,
			"count":432,
			"type":"SCALAR"
		},
		{
			"bufferView":30,
			"componentType":5126,
			"count":32,
			"max":[
				0.00482066348195076,
				0.007820132188498974,
				0.0013817073777318
			],
			"min":[
				-0.004769842140376568,
				-0.004967259243130684,
				-0.0008104331791400909
			],
			"type":"VEC3"
		},
		{
			"bufferView":31,
			"componentType":5126,
			"count":32,
			"type":"VEC3"
		},
		{
			"bufferView":32,
			"componentType":5126,
			"count":32,
			"type":"VEC2"
		},
		{
			"bufferView":33,
			"componentType":5126,
			"count":32,
			"type":"VEC2"
		},
		{
			"bufferView":34,
			"componentType":5123,
			"count":60,
			"type":"SCALAR"
		},
		{
			"bufferView":35,
			"componentType":5126,
			"count":34,
			"max":[
				0.006661373656243086,
				0.009330812841653824,
				-0.001100943423807621
			],
			"min":[
				-0.006672719959169626,
				-0.011952505446970463,
				-0.002014325000345707
			],
			"type":"VEC3"
		},
		{
			"bufferView":36,
			"componentType":5126,
			"count":34,
			"type":"VEC3"
		},
		{
			"bufferView":37,
			"componentType":5126,
			"count":34,
			"type":"VEC2"
		},
		{
			"bufferView":38,
			"componentType":5126,
			"count":34,
			"type":"VEC2"
		},
		{
			"bufferView":39,
			"componentType":5123,
			"count":48,
			"type":"SCALAR"
		},
		{
			"bufferView":40,
			"componentType":5126,
			"count":366,
			"max":[
				-0.004707793239504099,
				-0.007250015623867512,
				-0.0005534226074814796
			],
			"min":[
				-0.006093244068324566,
				-0.010265336371958256,
				-0.0012869089841842651
			],
			"type":"VEC3"
		},
		{
			"bufferView":41,
			"componentType":5126,
			"count":366,
			"type":"VEC3"
		},
		{
			"bufferView":42,
			"componentType":5126,
			"count":366,
			"type":"VEC2"
		},
		{
			"bufferView":43,
			"componentType":5126,
			"count":366,
			"type":"VEC2"
		},
		{
			"bufferView":44,
			"componentType":5123,
			"count":1008,
			"type":"SCALAR"
		},
		{
			"bufferView":45,
			"componentType":5126,
			"count":37,
			"max":[
				-0.004667024128139019,
				-0.007535253651440144,
				-0.0001051928848028183
			],
			"min":[
				-0.006134013179689646,
				-0.009980128146708012,
				-0.0010831216350197792
			],
			"type":"VEC3"
		},
		{
			"bufferView":46,
			"componentType":5126,
			"count":37,
			"type":"VEC3"
		},
		{
			"bufferView":47,
			"componentType":5126,
			"count":37,
			"type":"VEC2"
		},
		{
			"bufferView":48,
			"componentType":5126,
			"count":37,
			"type":"VEC2"
		},
		{
			"bufferView":49,
			"componentType":5123,
			"count":78,
			"type":"SCALAR"
		}
	],
	"bufferViews":[
		{
			"buffer":0,
			"byteLength":233928,
			"byteOffset":0,
			"target":34962
		},
		{
			"buffer":0,
			"byteLength":233928,
			"byteOffset":233928,
			"target":34962
		},
		{
			"buffer":0,
			"byteLength":155952,
			"byteOffset":467856,
			"target":34962
		},
		{
			"buffer":0,
			"byteLength":155952,
			"byteOffset":623808,
			"target":34962
		},
		{
			"buffer":0,
			"byteLength":221844,
			"byteOffset":779760,
			"target":34963
		},
		{
			"buffer":0,
			"byteLength":2016,
			"byteOffset":1001604,
			"target":34962
		},
		{
			"buffer":0,
			"byteLength":2016,
			"byteOffset":1003620,
			"target":34962
		},
		{
			"buffer":0,
			"byteLength":1344,
			"byteOffset":1005636,
			"target":34962
		},
		{
			"buffer":0,
			"byteLength":1344,
			"byteOffset":1006980,
			"target":34962
		},
		{
			"buffer":0,
			"byteLength":720,
			"byteOffset":1008324,
			"target":34963
		},
		{
			"buffer":0,
			"byteLength":37260,
			"byteOffset":1009044,
			"target":34962
		},
		{
			"buffer":0,
			"byteLength":37260,
			"byteOffset":1046304,
			"target":34962
		},
		{
			"buffer":0,
			"byteLength":24840,
			"byteOffset":1083564,
			"target":34962
		},
		{
			"buffer":0,
			"byteLength":24840,
			"byteOffset":1108404,
			"target":34962
		},
		{
			"buffer":0,
			"byteLength":16464,
			"byteOffset":1133244,
			"target":34963
		},
		{
			"buffer":0,
			"byteLength":7716,
			"byteOffset":1149708,
			"target":34962
		},
		{
			"buffer":0,
			"byteLength":7716,
			"byteOffset":1157424,
			"target":34962
		},
		{
			"buffer":0,
			"byteLength":5144,
			"byteOffset":1165140,
			"target":34962
		},
		{
			"buffer":0,
			"byteLength":5144,
			"byteOffset":1170284,
			"target":34962
		},
		{
			"buffer":0,
			"byteLength":5760,
			"byteOffset":1175428,
			"target":34963
		},
		{
			"buffer":0,
			"byteLength":195552,
			"byteOffset":1181188,
			"target":34962
		},
		{
			"buffer":0,
			"byteLength":195552,
			"byteOffset":1376740,
			"target":34962
		},
		{
			"buffer":0,
			"byteLength":130368,
			"byteOffset":1572292,
			"target":34962
		},
		{
			"buffer":0,
			"byteLength":130368,
			"byteOffset":1702660,
			"target":34962
		},
		{
			"buffer":0,
			"byteLength":190896,
			"byteOffset":1833028,
			"target":34963
		},
		{
			"buffer":0,
			"byteLength":2712,
			"byteOffset":2023924,
			"target":34962
		},
		{
			"buffer":0,
			"byteLength":2712,
			"byteOffset":2026636,
			"target":34962
		},
		{
			"buffer":0,
			"byteLength":1808,
			"byteOffset":2029348,
			"target":34962
		},
		{
			"buffer":0,
			"byteLength":1808,
			"byteOffset":2031156,
			"target":34962
		},
		{
			"buffer":0,
			"byteLength":864,
			"byteOffset":2032964,
			"target":34963
		},
		{
			"buffer":0,
			"byteLength":384,
			"byteOffset":2033828,
			"target":34962
		},
		{
			"buffer":0,
			"byteLength":384,
			"byteOffset":2034212,
			"target":34962
		},
		{
			"buffer":0,
			"byteLength":256,
			"byteOffset":2034596,
			"target":34962
		},
		{
			"buffer":0,
			"byteLength":256,
			"byteOffset":2034852,
			"target":34962
		},
		{
			"buffer":0,
			"byteLength":120,
			"byteOffset":2035108,
			"target":34963
		},
		{
			"buffer":0,
			"byteLength":408,
			"byteOffset":2035228,
			"target":34962
		},
		{
			"buffer":0,
			"byteLength":408,
			"byteOffset":2035636,
			"target":34962
		},
		{
			"buffer":0,
			"byteLength":272,
			"byteOffset":2036044,
			"target":34962
		},
		{
			"buffer":0,
			"byteLength":272,
			"byteOffset":2036316,
			"target":34962
		},
		{
			"buffer":0,
			"byteLength":96,
			"byteOffset":2036588,
			"target":34963
		},
		{
			"buffer":0,
			"byteLength":4392,
			"byteOffset":2036684,
			"target":34962
		},
		{
			"buffer":0,
			"byteLength":4392,
			"byteOffset":2041076,
			"target":34962
		},
		{
			"buffer":0,
			"byteLength":2928,
			"byteOffset":2045468,
			"target":34962
		},
		{
			"buffer":0,
			"byteLength":2928,
			"byteOffset":2048396,
			"target":34962
		},
		{
			"buffer":0,
			"byteLength":2016,
			"byteOffset":2051324,
			"target":34963
		},
		{
			"buffer":0,
			"byteLength":444,
			"byteOffset":2053340,
			"target":34962
		},
		{
			"buffer":0,
			"byteLength":444,
			"byteOffset":2053784,
			"target":34962
		},
		{
			"buffer":0,
			"byteLength":296,
			"byteOffset":2054228,
			"target":34962
		},
		{
			"buffer":0,
			"byteLength":296,
			"byteOffset":2054524,
			"target":34962
		},
		{
			"buffer":0,
			"byteLength":156,
			"byteOffset":2054820,
			"target":34963
		}
	],
	"buffers":[
		{
			"byteLength":2054976,
			"uri":"data:application/octet-stream;base64,"
		}
	]
}
