{
	"asset":{
		"generator":"Khronos glTF Blender I/O v4.2.69",
		"version":"2.0"
	},
	"extensionsUsed":[
		"KHR_lights_punctual",
		"KHR_materials_specular",
		"KHR_materials_ior"
	],
	"extensionsRequired":[
		"KHR_lights_punctual"
	],
	"extensions":{
		"KHR_lights_punctual":{
			"lights":[
				{
					"color":[
						1,
						1,
						1
					],
					"intensity":0.3978873577297384,
					"type":"point",
					"name":"Light"
				}
			]
		}
	},
	"scene":0,
	"scenes":[
		{
			"extras":{
				"uuid":"47e8aac4-d9cc-4fac-9ff9-584e07d1fbea",
				"assets reported":{},
				"assets used":{},
				"my_tool":{}
			},
			"name":"Scene",
			"nodes":[
				0,
				2,
				3
			]
		}
	],
	"nodes":[
		{
			"extensions":{
				"KHR_lights_punctual":{
					"light":0
				}
			},
			"name":"LIGHT - TURN",
			"rotation":[
				-0.7071068286895752,
				0,
				0,
				0.7071068286895752
			],
			"translation":[
				0,
				0.2679786682128906,
				0
			]
		},
		{
			"camera":0,
			"name":"Camera",
			"rotation":[
				-0.7071067690849304,
				0,
				0,
				0.7071068286895752
			],
			"scale":[
				8.601129531860352,
				8.601127624511719,
				8.601127624511719
			],
			"translation":[
				0,
				11.960211753845215,
				0
			]
		},
		{
			"children":[
				1
			],
			"name":"Empty",
			"scale":[
				0.029835321009159088,
				0.029835321009159088,
				0.029835321009159088
			]
		},
		{
			"mesh":0,
			"name":"Cube.005",
			"scale":[
				0.03429936245083809,
				0.0024135017301887274,
				0.02183557115495205
			]
		}
	],
	"cameras":[
		{
			"name":"Camera",
			"perspective":{
				"aspectRatio":1,
				"yfov":0.6911112070083618,
				"zfar":1000,
				"znear":0.10000000149011612
			},
			"type":"perspective"
		}
	],
	"materials":[
		{
			"doubleSided":true,
			"extensions":{
				"KHR_materials_specular":{
					"specularFactor":0
				},
				"KHR_materials_ior":{
					"ior":1.4499999284744263
				}
			},
			"name":"aluminio",
			"pbrMetallicRoughness":{
				"baseColorFactor":[
					0.5121598839759827,
					0.5121598839759827,
					0.5121598839759827,
					1
				],
				"roughnessFactor":0.5
			}
		},
		{
			"doubleSided":true,
			"name":"PLASTIC - BLACK",
			"pbrMetallicRoughness":{
				"baseColorFactor":[
					0,
					0,
					0,
					1
				],
				"metallicFactor":0.6224489808082581,
				"roughnessFactor":0.5
			}
		},
		{
			"doubleSided":true,
			"extensions":{
				"KHR_materials_specular":{
					"specularFactor":0
				},
				"KHR_materials_ior":{
					"ior":1.4499999284744263
				}
			},
			"name":"plastico_preto",
			"pbrMetallicRoughness":{
				"baseColorFactor":[
					0,
					0,
					0,
					1
				],
				"metallicFactor":0.6000000238418579,
				"roughnessFactor":0.5
			}
		},
		{
			"alphaMode":"BLEND",
			"doubleSided":true,
			"name":"translu plastic - clear",
			"pbrMetallicRoughness":{
				"baseColorFactor":[
					0.2935720980167389,
					0.2935720980167389,
					0.2935720980167389,
					0.5
				],
				"roughnessFactor":0.33000001311302185
			}
		}
	],
	"meshes":[
		{
			"name":"Cube.002",
			"primitives":[
				{
					"attributes":{
						"POSITION":0,
						"NORMAL":1,
						"TEXCOORD_0":2
					},
					"indices":3,
					"material":0
				},
				{
					"attributes":{
						"POSITION":4,
						"NORMAL":5,
						"TEXCOORD_0":6
					},
					"indices":7,
					"material":1
				},
				{
					"attributes":{
						"POSITION":8,
						"NORMAL":9,
						"TEXCOORD_0":10
					},
					"indices":11,
					"material":2
				},
				{
					"attributes":{
						"POSITION":12,
						"NORMAL":13,
						"TEXCOORD_0":14
					},
					"indices":15,
					"material":3
				}
			]
		}
	],
	"accessors":[
		{
			"bufferView":0,
			"componentType":5126,
			"count":4203,
			"max":[
				1.0879771709442139,
				11.74140739440918,
				0.9905946254730225
			],
			"min":[
				-0.899872899055481,
				-1.000000238418579,
				-0.9905946254730225
			],
			"type":"VEC3"
		},
		{
			"bufferView":1,
			"componentType":5126,
			"count":4203,
			"type":"VEC3"
		},
		{
			"bufferView":2,
			"componentType":5126,
			"count":4203,
			"type":"VEC2"
		},
		{
			"bufferView":3,
			"componentType":5123,
			"count":11124,
			"type":"SCALAR"
		},
		{
			"bufferView":4,
			"componentType":5126,
			"count":500,
			"max":[
				0.7010296583175659,
				1.7165822982788086,
				1
			],
			"min":[
				-0.9092782735824585,
				-1,
				-1
			],
			"type":"VEC3"
		},
		{
			"bufferView":5,
			"componentType":5126,
			"count":500,
			"type":"VEC3"
		},
		{
			"bufferView":6,
			"componentType":5126,
			"count":500,
			"type":"VEC2"
		},
		{
			"bufferView":7,
			"componentType":5123,
			"count":966,
			"type":"SCALAR"
		},
		{
			"bufferView":8,
			"componentType":5126,
			"count":240,
			"max":[
				0.6014823317527771,
				3.3758902549743652,
				0.4627779424190521
			],
			"min":[
				0.4398733377456665,
				0.9999958276748657,
				-0.47462135553359985
			],
			"type":"VEC3"
		},
		{
			"bufferView":9,
			"componentType":5126,
			"count":240,
			"type":"VEC3"
		},
		{
			"bufferView":10,
			"componentType":5126,
			"count":240,
			"type":"VEC2"
		},
		{
			"bufferView":11,
			"componentType":5123,
			"count":252,
			"type":"SCALAR"
		},
		{
			"bufferView":12,
			"componentType":5126,
			"count":453,
			"max":[
				0.01401105523109436,
				15.433307647705078,
				0.45976540446281433
			],
			"min":[
				-0.571380615234375,
				4.761302947998047,
				-0.45976904034614563
			],
			"type":"VEC3"
		},
		{
			"bufferView":13,
			"componentType":5126,
			"count":453,
			"type":"VEC3"
		},
		{
			"bufferView":14,
			"componentType":5126,
			"count":453,
			"type":"VEC2"
		},
		{
			"bufferView":15,
			"componentType":5123,
			"count":1908,
			"type":"SCALAR"
		}
	],
	"bufferViews":[
		{
			"buffer":0,
			"byteLength":50436,
			"byteOffset":0,
			"target":34962
		},
		{
			"buffer":0,
			"byteLength":50436,
			"byteOffset":50436,
			"target":34962
		},
		{
			"buffer":0,
			"byteLength":33624,
			"byteOffset":100872,
			"target":34962
		},
		{
			"buffer":0,
			"byteLength":22248,
			"byteOffset":134496,
			"target":34963
		},
		{
			"buffer":0,
			"byteLength":6000,
			"byteOffset":156744,
			"target":34962
		},
		{
			"buffer":0,
			"byteLength":6000,
			"byteOffset":162744,
			"target":34962
		},
		{
			"buffer":0,
			"byteLength":4000,
			"byteOffset":168744,
			"target":34962
		},
		{
			"buffer":0,
			"byteLength":1932,
			"byteOffset":172744,
			"target":34963
		},
		{
			"buffer":0,
			"byteLength":2880,
			"byteOffset":174676,
			"target":34962
		},
		{
			"buffer":0,
			"byteLength":2880,
			"byteOffset":177556,
			"target":34962
		},
		{
			"buffer":0,
			"byteLength":1920,
			"byteOffset":180436,
			"target":34962
		},
		{
			"buffer":0,
			"byteLength":504,
			"byteOffset":182356,
			"target":34963
		},
		{
			"buffer":0,
			"byteLength":5436,
			"byteOffset":182860,
			"target":34962
		},
		{
			"buffer":0,
			"byteLength":5436,
			"byteOffset":188296,
			"target":34962
		},
		{
			"buffer":0,
			"byteLength":3624,
			"byteOffset":193732,
			"target":34962
		},
		{
			"buffer":0,
			"byteLength":3816,
			"byteOffset":197356,
			"target":34963
		}
	],
	"buffers":[
		{
			"byteLength":201172,
			"uri":"data:application/octet-stream;base64,"
		}
	]
}
