{
	"asset":{
		"generator":"Khronos glTF Blender I/O v4.2.69",
		"version":"2.0"
	},
	"extensionsUsed":[
		"KHR_lights_punctual",
		"KHR_materials_clearcoat",
		"KHR_materials_specular",
		"KHR_materials_ior"
	],
	"extensionsRequired":[
		"KHR_lights_punctual"
	],
	"extensions":{
		"KHR_lights_punctual":{
			"lights":[
				{
					"color":[
						1,
						1,
						1
					],
					"intensity":0.3978873577297384,
					"type":"point",
					"name":"Light"
				}
			]
		}
	},
	"scene":0,
	"scenes":[
		{
			"extras":{
				"uuid":"47e8aac4-d9cc-4fac-9ff9-584e07d1fbea",
				"assets reported":{},
				"assets used":{},
				"my_tool":{}
			},
			"name":"Scene",
			"nodes":[
				0,
				1
			]
		}
	],
	"nodes":[
		{
			"extensions":{
				"KHR_lights_punctual":{
					"light":0
				}
			},
			"name":"LIGHT - TURN",
			"rotation":[
				-0.7071068286895752,
				0,
				0,
				0.7071068286895752
			],
			"translation":[
				0,
				0.2679786682128906,
				0
			]
		},
		{
			"mesh":0,
			"name":"USB cable",
			"scale":[
				0.0014567929320037365,
				0.0014567929320037365,
				0.0014567929320037365
			],
			"translation":[
				-0.012792771682143211,
				0,
				0.03946244716644287
			]
		}
	],
	"materials":[
		{
			"doubleSided":true,
			"name":"plastik black clear",
			"pbrMetallicRoughness":{
				"baseColorFactor":[
					0.0015743287513032556,
					0,
					0.05702492594718933,
					1
				],
				"metallicFactor":0,
				"roughnessFactor":0.5
			}
		},
		{
			"doubleSided":true,
			"name":"WhiteSteel",
			"pbrMetallicRoughness":{
				"baseColorFactor":[
					0.800000011920929,
					0.800000011920929,
					0.800000011920929,
					1
				],
				"roughnessFactor":0.33000001311302185
			}
		},
		{
			"doubleSided":true,
			"extensions":{
				"KHR_materials_clearcoat":{
					"clearcoatFactor":0.07083333283662796
				},
				"KHR_materials_specular":{
					"specularFactor":0.9666666388511658,
					"specularColorFactor":[
						0.9295759797096252,
						0.9298303723335266,
						0.9306005835533142
					]
				},
				"KHR_materials_ior":{
					"ior":2
				}
			},
			"name":"White plastik",
			"pbrMetallicRoughness":{
				"baseColorFactor":[
					0.530506432056427,
					0.5322023034095764,
					0.5373369455337524,
					1
				],
				"metallicFactor":0,
				"roughnessFactor":0.6333333253860474
			}
		},
		{
			"doubleSided":true,
			"name":"chrome",
			"pbrMetallicRoughness":{
				"baseColorFactor":[
					0.4141896069049835,
					0.11818087100982666,
					0,
					1
				],
				"roughnessFactor":0.5
			}
		},
		{
			"alphaMode":"BLEND",
			"doubleSided":true,
			"name":"usb bake",
			"pbrMetallicRoughness":{
				"baseColorFactor":[
					0.0005545640015043318,
					0,
					0.03377925604581833,
					0.8500000238418579
				],
				"metallicFactor":0.5,
				"roughnessFactor":0.2309090793132782
			}
		}
	],
	"meshes":[
		{
			"name":"Mesh.004",
			"primitives":[
				{
					"attributes":{
						"POSITION":0,
						"NORMAL":1,
						"TEXCOORD_0":2
					},
					"indices":3,
					"material":0
				},
				{
					"attributes":{
						"POSITION":4,
						"NORMAL":5,
						"TEXCOORD_0":6
					},
					"indices":7,
					"material":1
				},
				{
					"attributes":{
						"POSITION":8,
						"NORMAL":9,
						"TEXCOORD_0":10
					},
					"indices":11,
					"material":2
				},
				{
					"attributes":{
						"POSITION":12,
						"NORMAL":13,
						"TEXCOORD_0":14
					},
					"indices":15,
					"material":3
				},
				{
					"attributes":{
						"POSITION":16,
						"NORMAL":17,
						"TEXCOORD_0":18
					},
					"indices":19,
					"material":4
				}
			]
		}
	],
	"accessors":[
		{
			"bufferView":0,
			"componentType":5126,
			"count":986,
			"max":[
				3.7531075477600098,
				12.96267032623291,
				-19.221561431884766
			],
			"min":[
				-11.950366020202637,
				9.853048324584961,
				-90.38899993896484
			],
			"type":"VEC3"
		},
		{
			"bufferView":1,
			"componentType":5126,
			"count":986,
			"type":"VEC3"
		},
		{
			"bufferView":2,
			"componentType":5126,
			"count":986,
			"type":"VEC2"
		},
		{
			"bufferView":3,
			"componentType":5123,
			"count":5130,
			"type":"SCALAR"
		},
		{
			"bufferView":4,
			"componentType":5126,
			"count":5702,
			"max":[
				8.45722770690918,
				14.615056037902832,
				-4.405679702758789
			],
			"min":[
				-13.127469062805176,
				6.8739447593688965,
				-100.55802154541016
			],
			"type":"VEC3"
		},
		{
			"bufferView":5,
			"componentType":5126,
			"count":5702,
			"type":"VEC3"
		},
		{
			"bufferView":6,
			"componentType":5126,
			"count":5702,
			"type":"VEC2"
		},
		{
			"bufferView":7,
			"componentType":5123,
			"count":30132,
			"type":"SCALAR"
		},
		{
			"bufferView":8,
			"componentType":5126,
			"count":520,
			"max":[
				8.154021263122559,
				11.568123817443848,
				-4.457794189453125
			],
			"min":[
				-4.131773471832275,
				6.365860939025879,
				-22.812963485717773
			],
			"type":"VEC3"
		},
		{
			"bufferView":9,
			"componentType":5126,
			"count":520,
			"type":"VEC3"
		},
		{
			"bufferView":10,
			"componentType":5126,
			"count":520,
			"type":"VEC2"
		},
		{
			"bufferView":11,
			"componentType":5123,
			"count":2184,
			"type":"SCALAR"
		},
		{
			"bufferView":12,
			"componentType":5126,
			"count":68,
			"max":[
				6.448099136352539,
				10.505986213684082,
				-5.693073272705078
			],
			"min":[
				-2.100714683532715,
				8.748617172241211,
				-16.903593063354492
			],
			"type":"VEC3"
		},
		{
			"bufferView":13,
			"componentType":5126,
			"count":68,
			"type":"VEC3"
		},
		{
			"bufferView":14,
			"componentType":5126,
			"count":68,
			"type":"VEC2"
		},
		{
			"bufferView":15,
			"componentType":5123,
			"count":360,
			"type":"SCALAR"
		},
		{
			"bufferView":16,
			"componentType":5126,
			"count":10806,
			"max":[
				54.367462158203125,
				17.19453239440918,
				20.44732666015625
			],
			"min":[
				-45.344608306884766,
				1.731285572052002,
				-100.44147491455078
			],
			"type":"VEC3"
		},
		{
			"bufferView":17,
			"componentType":5126,
			"count":10806,
			"type":"VEC3"
		},
		{
			"bufferView":18,
			"componentType":5126,
			"count":10806,
			"type":"VEC2"
		},
		{
			"bufferView":19,
			"componentType":5123,
			"count":59616,
			"type":"SCALAR"
		}
	],
	"bufferViews":[
		{
			"buffer":0,
			"byteLength":11832,
			"byteOffset":0,
			"target":34962
		},
		{
			"buffer":0,
			"byteLength":11832,
			"byteOffset":11832,
			"target":34962
		},
		{
			"buffer":0,
			"byteLength":7888,
			"byteOffset":23664,
			"target":34962
		},
		{
			"buffer":0,
			"byteLength":10260,
			"byteOffset":31552,
			"target":34963
		},
		{
			"buffer":0,
			"byteLength":68424,
			"byteOffset":41812,
			"target":34962
		},
		{
			"buffer":0,
			"byteLength":68424,
			"byteOffset":110236,
			"target":34962
		},
		{
			"buffer":0,
			"byteLength":45616,
			"byteOffset":178660,
			"target":34962
		},
		{
			"buffer":0,
			"byteLength":60264,
			"byteOffset":224276,
			"target":34963
		},
		{
			"buffer":0,
			"byteLength":6240,
			"byteOffset":284540,
			"target":34962
		},
		{
			"buffer":0,
			"byteLength":6240,
			"byteOffset":290780,
			"target":34962
		},
		{
			"buffer":0,
			"byteLength":4160,
			"byteOffset":297020,
			"target":34962
		},
		{
			"buffer":0,
			"byteLength":4368,
			"byteOffset":301180,
			"target":34963
		},
		{
			"buffer":0,
			"byteLength":816,
			"byteOffset":305548,
			"target":34962
		},
		{
			"buffer":0,
			"byteLength":816,
			"byteOffset":306364,
			"target":34962
		},
		{
			"buffer":0,
			"byteLength":544,
			"byteOffset":307180,
			"target":34962
		},
		{
			"buffer":0,
			"byteLength":720,
			"byteOffset":307724,
			"target":34963
		},
		{
			"buffer":0,
			"byteLength":129672,
			"byteOffset":308444,
			"target":34962
		},
		{
			"buffer":0,
			"byteLength":129672,
			"byteOffset":438116,
			"target":34962
		},
		{
			"buffer":0,
			"byteLength":86448,
			"byteOffset":567788,
			"target":34962
		},
		{
			"buffer":0,
			"byteLength":119232,
			"byteOffset":654236,
			"target":34963
		}
	],
	"buffers":[
		{
			"byteLength":773468,
			"uri":"data:application/octet-stream;base64,"
		}
	]
}
