{
	"asset":{
		"generator":"Khronos glTF Blender I/O v4.2.69",
		"version":"2.0"
	},
	"extensionsUsed":[
		"KHR_materials_specular",
		"KHR_materials_ior"
	],
	"scene":0,
	"scenes":[
		{
			"extras":{
				"uuid":"47e8aac4-d9cc-4fac-9ff9-584e07d1fbea",
				"assets reported":{
					"9e30ed95-ddfa-4342-8611-e1401c773af6":true
				},
				"assets used":{
					"5907537c-8ba2-47ea-a54b-f30be4887b5c":{
						"addonVersion":"3.12.0",
						"assetBaseId":"5907537c-8ba2-47ea-a54b-f30be4887b5c",
						"assetType":"model",
						"author":{
							"aboutMe":"I am a developer, administrator, 3d artist ... and create mostly 3D scenes, models, add-ons and motion graphics with and for use in Blender.",
							"aboutMeUrl":"https://blendermarket.com/creators/dennis-hafemann",
							"avatar128":"/avatar-redirect/c74dd42b-0be4-4f3b-8c88-25e91a19d639/128/",
							"firstName":"Dennis",
							"fullName":"Dennis Hafemann",
							"gravatarHash":"4ce74765f0668ae7de929948b701e85f",
							"id":"741007",
							"lastName":"Hafemann"
						},
						"available_resolutions":[],
						"bbox_max":[
							0.0754,
							0.0621,
							0.2282
						],
						"bbox_min":[
							-0.0621,
							-0.0621,
							0.0
						],
						"canDownload":true,
						"canDownloadError":true,
						"category":"decoration",
						"created":"2024-01-17T18:41:56.943024+01:00",
						"description":"Simpe golden candle holder with white candle and flame, made from mesh-volume, Old style, but clearly elegant and good looking kind of new style.\r\n\r\n* Low-poly objects, modifiers used, about 16k faces after stack\r\n\r\n* Flame was made with volume and light, no simulation/not animated\r\n\r\n* Procedual materials\r\n\r\n* Real world-sizes: ~13.5 cm x 23 cm",
						"dictParameters":{
							"boundBoxMaxX":0.0754,
							"boundBoxMaxY":0.0621,
							"boundBoxMaxZ":0.2282,
							"boundBoxMinX":-0.0621,
							"boundBoxMinY":-0.0621,
							"boundBoxMinZ":0,
							"condition":"new",
							"dimensionX":0.1375,
							"dimensionY":0.1242,
							"dimensionZ":0.2282,
							"engines":[
								"[cycles]"
							],
							"faceCount":3012,
							"faceCountRender":40512,
							"imageAltTextGen4v":"Golden low-poly Blender 3D candle holder model with white candle and dynamic flame, featuring procedural materials and real-world dimensions.",
							"joinBlenderkitDiscounts":true,
							"manifold":false,
							"materials":[
								"[Gold Metal Candle Candle Wick Candle Flame Volume]"
							],
							"megapixels":0,
							"meshPolyType":"quad_dominant",
							"modelStyle":"realistic",
							"modifiers":[
								"[bevel subsurf nodes simple deform mesh to volume]"
							],
							"nodeCount":19,
							"objectCount":6,
							"procedural":true,
							"productionLevel":"finished",
							"rig":false,
							"sexualizedContent":false,
							"shaders":[
								"[principled principled volume]"
							],
							"simulation":false,
							"textAIcheckedDate":"2024-07-02",
							"textureCount":0,
							"uv":true
						},
						"displayName":"Candle holder with candle and flame",
						"downloaded":0,
						"files":[
							{
								"created":"2024-06-23T13:30:18.899194+02:00",
								"downloadUrl":"https://www.blenderkit.com/api/v1/downloads/409455/",
								"fileThumbnail":"",
								"fileThumbnailLarge":"",
								"fileType":"blend",
								"filename":"",
								"modified":"2024-07-02T11:36:51.388492+02:00",
								"resolution":0,
								"url":"https://assets.blenderkit.com/assets/901ea4b0630048f0bd729850b1d80570/files/blend_76987d63-6de3-4bd7-8cab-1a01f8b1e166.blend?verify=1743964575-gUTYT7JlUFM%2FXYtYPMkm9tV9aHPFLTPwGgp3ZjO3z4U%3D",
								"file_name":"D:\\Downloads\\WORK\\ROVS\\COMPONENTS\\all\\assets\\models\\candle-holder-wi_901ea4b0-6300-48f0-bd72-9850b1d80570\\candle-holder-with-candle-and-flame_76987d63-6de3-4bd7-8cab-1a01f8b1e166.blend"
							},
							{
								"created":"2024-01-17T18:42:01.450868+01:00",
								"downloadUrl":"https://www.blenderkit.com/api/v1/downloads/298138/",
								"fileThumbnail":"https://public.blenderkit.com/thumbnails/assets/901ea4b0630048f0bd729850b1d80570/files/thumbnail_3e91d2f9-5473-4712-aab1-db14393e062b.jpg.96x96_q85_crop-%2C.jpg",
								"fileThumbnailLarge":"https://public.blenderkit.com/thumbnails/assets/901ea4b0630048f0bd729850b1d80570/files/thumbnail_3e91d2f9-5473-4712-aab1-db14393e062b.jpg.1024x1024_q85_crop-%2C.jpg",
								"fileType":"thumbnail",
								"filename":"",
								"modified":"2024-07-02T11:36:51.413196+02:00",
								"resolution":0,
								"url":""
							}
						],
						"filesSize":311,
						"id":"901ea4b0-6300-48f0-bd72-9850b1d80570",
						"isFree":true,
						"isPrivate":false,
						"lastBlendUpload":"2024-06-23T11:30:18.899194+00:00",
						"lastGltfUpload":"",
						"lastResolutionUpload":"",
						"lastThumbnailUpload":"2024-01-17T17:42:01.450868+00:00",
						"lastUserInteraction":"2024-06-23T13:30:19.259841+02:00",
						"lastVideoUpload":"",
						"lastZipFileUpload":"",
						"license":"royalty_free",
						"max_resolution":0,
						"name":"Candle holder with candle and flame",
						"pk":77496,
						"ratingsAverage":{
							"bookmarks":1,
							"competition-2022-votes":null,
							"quality":8,
							"virtualPrice":null,
							"workingHours":2
						},
						"ratingsCount":{
							"bookmarks":91,
							"competition-2022-votes":0,
							"quality":1,
							"virtualPrice":0,
							"workingHours":1
						},
						"ratingsMedian":{
							"bookmarks":1,
							"competition-2022-votes":null,
							"quality":8,
							"virtualPrice":null,
							"workingHours":2
						},
						"ratingsSum":{
							"bookmarks":91,
							"competition-2022-votes":null,
							"quality":8,
							"score":160,
							"virtualPrice":null,
							"workingHours":2
						},
						"score":160,
						"showMarketingLabels":true,
						"sourceAppName":"blender",
						"sourceAppVersion":"4.1.1",
						"tags":[
							"candle",
							"holder",
							"flame",
							"decoration",
							"gold",
							"style"
						],
						"thumbnail":"thumbnail_3e91d2f9-5473-4712-aab1-db14393e062b.jpg.512x512_q85_crop-%2C.jpg.webp",
						"thumbnailLargeUrl":"https://public.blenderkit.com/thumbnails/assets/901ea4b0630048f0bd729850b1d80570/files/thumbnail_3e91d2f9-5473-4712-aab1-db14393e062b.jpg.1024x1024_q85_crop-%2C.jpg",
						"thumbnailLargeUrlNonsquared":"https://public.blenderkit.com/thumbnails/assets/901ea4b0630048f0bd729850b1d80570/files/thumbnail_3e91d2f9-5473-4712-aab1-db14393e062b.jpg.1024x1024_q85.jpg",
						"thumbnailLargeUrlNonsquaredWebp":"https://public.blenderkit.com/thumbnails/assets/901ea4b0630048f0bd729850b1d80570/files/thumbnail_3e91d2f9-5473-4712-aab1-db14393e062b.jpg.1024x1024_q85.jpg.webp?webp_generated=1719917762",
						"thumbnailLargeUrlWebp":"https://public.blenderkit.com/thumbnails/assets/901ea4b0630048f0bd729850b1d80570/files/thumbnail_3e91d2f9-5473-4712-aab1-db14393e062b.jpg.1024x1024_q85_crop-%2C.jpg.webp?webp_generated=1719917762",
						"thumbnailMiddleUrl":"https://public.blenderkit.com/thumbnails/assets/901ea4b0630048f0bd729850b1d80570/files/thumbnail_3e91d2f9-5473-4712-aab1-db14393e062b.jpg.512x512_q85_crop-%2C.jpg",
						"thumbnailMiddleUrlNonsquared":"https://public.blenderkit.com/thumbnails/assets/901ea4b0630048f0bd729850b1d80570/files/thumbnail_3e91d2f9-5473-4712-aab1-db14393e062b.jpg.512x512_q85.jpg",
						"thumbnailMiddleUrlNonsquaredWebp":"https://public.blenderkit.com/thumbnails/assets/901ea4b0630048f0bd729850b1d80570/files/thumbnail_3e91d2f9-5473-4712-aab1-db14393e062b.jpg.512x512_q85.jpg.webp?webp_generated=1719917762",
						"thumbnailMiddleUrlWebp":"https://public.blenderkit.com/thumbnails/assets/901ea4b0630048f0bd729850b1d80570/files/thumbnail_3e91d2f9-5473-4712-aab1-db14393e062b.jpg.512x512_q85_crop-%2C.jpg.webp?webp_generated=1719917762",
						"thumbnailSmallUrl":"https://public.blenderkit.com/thumbnails/assets/901ea4b0630048f0bd729850b1d80570/files/thumbnail_3e91d2f9-5473-4712-aab1-db14393e062b.jpg.256x256_q85_crop-%2C.jpg",
						"thumbnailSmallUrlNonsquared":"https://public.blenderkit.com/thumbnails/assets/901ea4b0630048f0bd729850b1d80570/files/thumbnail_3e91d2f9-5473-4712-aab1-db14393e062b.jpg.256x256_q85.jpg",
						"thumbnailSmallUrlNonsquaredWebp":"https://public.blenderkit.com/thumbnails/assets/901ea4b0630048f0bd729850b1d80570/files/thumbnail_3e91d2f9-5473-4712-aab1-db14393e062b.jpg.256x256_q85.jpg.webp?webp_generated=1719917762",
						"thumbnailSmallUrlWebp":"https://public.blenderkit.com/thumbnails/assets/901ea4b0630048f0bd729850b1d80570/files/thumbnail_3e91d2f9-5473-4712-aab1-db14393e062b.jpg.256x256_q85_crop-%2C.jpg.webp?webp_generated=1719917762",
						"thumbnailXlargeUrl":"https://public.blenderkit.com/thumbnails/assets/901ea4b0630048f0bd729850b1d80570/files/thumbnail_3e91d2f9-5473-4712-aab1-db14393e062b.jpg.2048x2048_q85_crop-%2C.jpg",
						"thumbnailXlargeUrlNonsquared":"https://public.blenderkit.com/thumbnails/assets/901ea4b0630048f0bd729850b1d80570/files/thumbnail_3e91d2f9-5473-4712-aab1-db14393e062b.jpg.2048x2048_q85.jpg",
						"thumbnailXlargeUrlNonsquaredWebp":"https://public.blenderkit.com/thumbnails/assets/901ea4b0630048f0bd729850b1d80570/files/thumbnail_3e91d2f9-5473-4712-aab1-db14393e062b.jpg.2048x2048_q85.jpg.webp?webp_generated=1719917762",
						"thumbnailXlargeUrlWebp":"https://public.blenderkit.com/thumbnails/assets/901ea4b0630048f0bd729850b1d80570/files/thumbnail_3e91d2f9-5473-4712-aab1-db14393e062b.jpg.2048x2048_q85_crop-%2C.jpg.webp?webp_generated=1719917762",
						"thumbnail_small":"thumbnail_3e91d2f9-5473-4712-aab1-db14393e062b.jpg.256x256_q85_crop-%2C.jpg.webp",
						"tooltip_data":{
							"aname":"Candle holder with candle and flame",
							"author_text":"by Dennis Hafemann",
							"quality":"8"
						},
						"url":"https://www.blenderkit.com/api/v1/assets/901ea4b0-6300-48f0-bd72-9850b1d80570/",
						"verificationStatus":"validated",
						"versionNumber":1,
						"webpGeneratedTimestamp":1719917762,
						"resolution":"resolution_2K"
					},
					"9e30ed95-ddfa-4342-8611-e1401c773af6":{
						"addonVersion":"3.9.0",
						"assetBaseId":"9e30ed95-ddfa-4342-8611-e1401c773af6",
						"assetType":"material",
						"author":{
							"aboutMe":"I am a Blender animator, modeller as well as a digital imaging specialist (Photoshop, since 1998).",
							"aboutMeUrl":"https://www.turningturnip.co.uk",
							"avatar128":"/avatar-redirect/f27f13f1-fabb-4c68-a841-9fda3c707246/128/",
							"firstName":"James",
							"fullName":"James Middleton",
							"gravatarHash":"08d08063b99022fda90e8477a0b502f5",
							"gravatarImg":"C:\\Users\\Seth\\AppData\\Local\\Temp\\bktemp_SETHLAPTOPSeth\\bkit_g\\33950.jpg",
							"id":"33950",
							"lastName":"Middleton",
							"socialNetworks":[
								{
									"socialNetwork":{
										"icon":"<i class=\"fab fa-youtube\" title=\"YouTube\"></i><span class=\"sr-only\">YouTube</span>",
										"name":"YouTube",
										"order":1
									},
									"url":"https://www.youtube.com/@blenderbones"
								}
							],
							"tooltip":"James Middleton\n\nI am a Blender animator, modeller as well as a digital imaging specialist (Photoshop, since 1998).\n"
						},
						"available_resolutions":[],
						"canDownload":true,
						"canDownloadError":true,
						"category":"ceramic",
						"created":"2024-01-04T11:14:34.285537+01:00",
						"description":"A terracotta clay texture. 100% procedural ceramic shader, with bumps and imperfections. Terracotta Clay",
						"dictParameters":{
							"condition":"new",
							"engine":"cycles",
							"imageAltTextGen4v":"Highly detailed Terracotta Clay PBR material for Blender, showcasing realistic texture, suitable for 3D modeling and rendering.",
							"materialStyle":"realistic",
							"megapixels":0,
							"nodeCount":12,
							"procedural":true,
							"sexualizedContent":false,
							"shaders":[
								"principled"
							],
							"textureCount":0,
							"textureSizeMeters":1,
							"uv":false
						},
						"displayName":"Terracotta",
						"downloaded":0,
						"files":[
							{
								"created":"2024-01-04T11:15:47.729210+01:00",
								"downloadUrl":"https://www.blenderkit.com/api/v1/downloads/291374/",
								"fileThumbnail":"",
								"fileThumbnailLarge":"",
								"fileType":"blend",
								"filename":"",
								"modified":"2024-09-06T12:28:44.955414+02:00",
								"resolution":0,
								"url":"https://public.blenderkit.com/public-assets/assets/1ff40015606a483dbdf6f67583eb0050/files/blend_dee9e66f-ac39-4bae-9cf9-bd9d69067fc5.blend",
								"file_name":"D:\\Downloads\\WORK\\ROVS\\COMPONENTS\\assets\\materials\\terracotta-clay_1ff40015-606a-483d-bdf6-f67583eb0050\\terracotta-clay_dee9e66f-ac39-4bae-9cf9-bd9d69067fc5.blend"
							},
							{
								"created":"2024-01-04T11:15:46.007664+01:00",
								"downloadUrl":"https://www.blenderkit.com/api/v1/downloads/291373/",
								"fileThumbnail":"https://public.blenderkit.com/thumbnails/assets/1ff40015606a483dbdf6f67583eb0050/files/thumbnail_2a362610-93b3-44dd-95c1-eeee4d4d76eb.png.96x96_q85_crop-%2C.png",
								"fileThumbnailLarge":"https://public.blenderkit.com/thumbnails/assets/1ff40015606a483dbdf6f67583eb0050/files/thumbnail_2a362610-93b3-44dd-95c1-eeee4d4d76eb.png.1024x1024_q85_crop-%2C.png",
								"fileType":"thumbnail",
								"filename":"",
								"modified":"2024-09-06T12:28:44.979891+02:00",
								"resolution":0,
								"url":""
							}
						],
						"filesSize":769,
						"id":"1ff40015-606a-483d-bdf6-f67583eb0050",
						"isFree":true,
						"isPrivate":false,
						"lastBlendUpload":"2024-01-04T10:15:47.729210+00:00",
						"lastGltfUpload":"",
						"lastResolutionUpload":"",
						"lastThumbnailUpload":"2024-01-04T10:15:46.007664+00:00",
						"lastUserInteraction":"2024-01-04T11:15:48.246785+01:00",
						"lastVideoUpload":"",
						"lastZipFileUpload":"",
						"license":"royalty_free",
						"max_resolution":0,
						"name":"Terracotta Clay",
						"pk":75806,
						"ratingsAverage":{
							"bookmarks":1,
							"competition-2022-votes":null,
							"quality":8,
							"virtualPrice":null,
							"workingHours":0.75
						},
						"ratingsCount":{
							"bookmarks":66,
							"competition-2022-votes":0,
							"quality":2,
							"virtualPrice":0,
							"workingHours":2
						},
						"ratingsMedian":{
							"bookmarks":1,
							"competition-2022-votes":null,
							"quality":8,
							"virtualPrice":null,
							"workingHours":0.75
						},
						"ratingsSum":{
							"bookmarks":66,
							"competition-2022-votes":null,
							"quality":16,
							"score":60,
							"virtualPrice":null,
							"workingHours":1.5
						},
						"score":60,
						"showMarketingLabels":true,
						"sourceAppName":"blender",
						"sourceAppVersion":"4.0.2",
						"tags":[
							"terracotta",
							"clay",
							"ceramic",
							"procedural",
							"bumps",
							"imperfections",
							"shader"
						],
						"texture_size_meters":1,
						"thumbnail":"thumbnail_2a362610-93b3-44dd-95c1-eeee4d4d76eb.png.512x512_q85_crop-%2C.png.webp",
						"thumbnailLargeUrl":"https://public.blenderkit.com/thumbnails/assets/1ff40015606a483dbdf6f67583eb0050/files/thumbnail_2a362610-93b3-44dd-95c1-eeee4d4d76eb.png.1024x1024_q85_crop-%2C.png",
						"thumbnailLargeUrlNonsquared":"https://public.blenderkit.com/thumbnails/assets/1ff40015606a483dbdf6f67583eb0050/files/thumbnail_2a362610-93b3-44dd-95c1-eeee4d4d76eb.png.1024x1024_q85.png",
						"thumbnailLargeUrlNonsquaredWebp":"https://public.blenderkit.com/thumbnails/assets/1ff40015606a483dbdf6f67583eb0050/files/thumbnail_2a362610-93b3-44dd-95c1-eeee4d4d76eb.png.1024x1024_q85.png.webp?webp_generated=1725618528",
						"thumbnailLargeUrlWebp":"https://public.blenderkit.com/thumbnails/assets/1ff40015606a483dbdf6f67583eb0050/files/thumbnail_2a362610-93b3-44dd-95c1-eeee4d4d76eb.png.1024x1024_q85_crop-%2C.png.webp?webp_generated=1725618528",
						"thumbnailMiddleUrl":"https://public.blenderkit.com/thumbnails/assets/1ff40015606a483dbdf6f67583eb0050/files/thumbnail_2a362610-93b3-44dd-95c1-eeee4d4d76eb.png.512x512_q85_crop-%2C.png",
						"thumbnailMiddleUrlNonsquared":"https://public.blenderkit.com/thumbnails/assets/1ff40015606a483dbdf6f67583eb0050/files/thumbnail_2a362610-93b3-44dd-95c1-eeee4d4d76eb.png.512x512_q85.png",
						"thumbnailMiddleUrlNonsquaredWebp":"https://public.blenderkit.com/thumbnails/assets/1ff40015606a483dbdf6f67583eb0050/files/thumbnail_2a362610-93b3-44dd-95c1-eeee4d4d76eb.png.512x512_q85.png.webp?webp_generated=1725618528",
						"thumbnailMiddleUrlWebp":"https://public.blenderkit.com/thumbnails/assets/1ff40015606a483dbdf6f67583eb0050/files/thumbnail_2a362610-93b3-44dd-95c1-eeee4d4d76eb.png.512x512_q85_crop-%2C.png.webp?webp_generated=1725618528",
						"thumbnailSmallUrl":"https://public.blenderkit.com/thumbnails/assets/1ff40015606a483dbdf6f67583eb0050/files/thumbnail_2a362610-93b3-44dd-95c1-eeee4d4d76eb.png.256x256_q85_crop-%2C.png",
						"thumbnailSmallUrlNonsquared":"https://public.blenderkit.com/thumbnails/assets/1ff40015606a483dbdf6f67583eb0050/files/thumbnail_2a362610-93b3-44dd-95c1-eeee4d4d76eb.png.256x256_q85.png",
						"thumbnailSmallUrlNonsquaredWebp":"https://public.blenderkit.com/thumbnails/assets/1ff40015606a483dbdf6f67583eb0050/files/thumbnail_2a362610-93b3-44dd-95c1-eeee4d4d76eb.png.256x256_q85.png.webp?webp_generated=1725618528",
						"thumbnailSmallUrlWebp":"https://public.blenderkit.com/thumbnails/assets/1ff40015606a483dbdf6f67583eb0050/files/thumbnail_2a362610-93b3-44dd-95c1-eeee4d4d76eb.png.256x256_q85_crop-%2C.png.webp?webp_generated=1725618528",
						"thumbnailXlargeUrl":"https://public.blenderkit.com/thumbnails/assets/1ff40015606a483dbdf6f67583eb0050/files/thumbnail_2a362610-93b3-44dd-95c1-eeee4d4d76eb.png.2048x2048_q85_crop-%2C.png",
						"thumbnailXlargeUrlNonsquared":"https://public.blenderkit.com/thumbnails/assets/1ff40015606a483dbdf6f67583eb0050/files/thumbnail_2a362610-93b3-44dd-95c1-eeee4d4d76eb.png.2048x2048_q85.png",
						"thumbnailXlargeUrlNonsquaredWebp":"https://public.blenderkit.com/thumbnails/assets/1ff40015606a483dbdf6f67583eb0050/files/thumbnail_2a362610-93b3-44dd-95c1-eeee4d4d76eb.png.2048x2048_q85.png.webp?webp_generated=1725618528",
						"thumbnailXlargeUrlWebp":"https://public.blenderkit.com/thumbnails/assets/1ff40015606a483dbdf6f67583eb0050/files/thumbnail_2a362610-93b3-44dd-95c1-eeee4d4d76eb.png.2048x2048_q85_crop-%2C.png.webp?webp_generated=1725618528",
						"thumbnail_small":"thumbnail_2a362610-93b3-44dd-95c1-eeee4d4d76eb.png.256x256_q85_crop-%2C.png.webp",
						"tooltip_data":{
							"aname":"Terracotta",
							"author_text":"by James Middleton",
							"quality":"8"
						},
						"url":"https://www.blenderkit.com/api/v1/assets/1ff40015-606a-483d-bdf6-f67583eb0050/",
						"verificationStatus":"validated",
						"versionNumber":1,
						"webpGeneratedTimestamp":1725618528,
						"resolution":"resolution_2K"
					}
				},
				"my_tool":{},
				"addon_copy_global_transform_mirror_ob":{},
				"addon_copy_global_transform_relative_ob":{}
			},
			"name":"Scene",
			"nodes":[
				0
			]
		}
	],
	"nodes":[
		{
			"mesh":0,
			"name":"MATRIX TUBE.002",
			"rotation":[
				-0.2164396494626999,
				0,
				0,
				0.976296067237854
			]
		}
	],
	"materials":[
		{
			"doubleSided":true,
			"extensions":{
				"KHR_materials_specular":{
					"specularFactor":0
				},
				"KHR_materials_ior":{
					"ior":1.4499999284744263
				}
			},
			"name":"plastico_preto.009",
			"pbrMetallicRoughness":{
				"baseColorFactor":[
					0.00560440868139267,
					0.00560440868139267,
					0.00560440868139267,
					1
				],
				"metallicFactor":0,
				"roughnessFactor":0.5
			}
		},
		{
			"doubleSided":true,
			"extensions":{
				"KHR_materials_specular":{
					"specularFactor":0
				},
				"KHR_materials_ior":{
					"ior":1.4499999284744263
				}
			},
			"name":"metal.006",
			"pbrMetallicRoughness":{
				"baseColorFactor":[
					0.603813886642456,
					0.603813886642456,
					0.603813886642456,
					1
				],
				"roughnessFactor":0.5
			}
		},
		{
			"doubleSided":true,
			"extensions":{
				"KHR_materials_specular":{
					"specularFactor":0
				},
				"KHR_materials_ior":{
					"ior":1.4499999284744263
				}
			},
			"name":"branco.005",
			"pbrMetallicRoughness":{
				"metallicFactor":0,
				"roughnessFactor":0.5
			}
		}
	],
	"meshes":[
		{
			"name":"MAX7219 8x8 LED Dot Matrix Display Module - MAX7219 8x8 LED.002",
			"primitives":[
				{
					"attributes":{
						"POSITION":0,
						"NORMAL":1,
						"TEXCOORD_0":2,
						"TEXCOORD_1":3,
						"TEXCOORD_2":4
					},
					"indices":5,
					"material":0
				},
				{
					"attributes":{
						"POSITION":6,
						"NORMAL":7,
						"TEXCOORD_0":8,
						"TEXCOORD_1":9,
						"TEXCOORD_2":10
					},
					"indices":11,
					"material":1
				},
				{
					"attributes":{
						"POSITION":12,
						"NORMAL":13,
						"TEXCOORD_0":14,
						"TEXCOORD_1":15,
						"TEXCOORD_2":16
					},
					"indices":17,
					"material":2
				}
			]
		}
	],
	"accessors":[
		{
			"bufferView":0,
			"componentType":5126,
			"count":2457,
			"max":[
				0.01590019464492798,
				0.015899986028671265,
				0.0021675291936844587
			],
			"min":[
				-0.015899837017059326,
				-0.01590004563331604,
				0.0021675291936844587
			],
			"type":"VEC3"
		},
		{
			"bufferView":1,
			"componentType":5126,
			"count":2457,
			"type":"VEC3"
		},
		{
			"bufferView":2,
			"componentType":5126,
			"count":2457,
			"type":"VEC2"
		},
		{
			"bufferView":3,
			"componentType":5126,
			"count":2457,
			"type":"VEC2"
		},
		{
			"bufferView":4,
			"componentType":5126,
			"count":2457,
			"type":"VEC2"
		},
		{
			"bufferView":5,
			"componentType":5123,
			"count":7704,
			"type":"SCALAR"
		},
		{
			"bufferView":6,
			"componentType":5126,
			"count":2873,
			"max":[
				0.012249280698597431,
				0.009139984846115112,
				-0.002032450633123517
			],
			"min":[
				-0.012248999439179897,
				-0.009140045382082462,
				-0.008332481607794762
			],
			"type":"VEC3"
		},
		{
			"bufferView":7,
			"componentType":5126,
			"count":2873,
			"type":"VEC3"
		},
		{
			"bufferView":8,
			"componentType":5126,
			"count":2873,
			"type":"VEC2"
		},
		{
			"bufferView":9,
			"componentType":5126,
			"count":2873,
			"type":"VEC2"
		},
		{
			"bufferView":10,
			"componentType":5126,
			"count":2873,
			"type":"VEC2"
		},
		{
			"bufferView":11,
			"componentType":5123,
			"count":7104,
			"type":"SCALAR"
		},
		{
			"bufferView":12,
			"componentType":5126,
			"count":24016,
			"max":[
				0.01590019464492798,
				0.015899986028671265,
				0.0021675291936844587
			],
			"min":[
				-0.015899837017059326,
				-0.01590004563331604,
				-0.004832440055906773
			],
			"type":"VEC3"
		},
		{
			"bufferView":13,
			"componentType":5126,
			"count":24016,
			"type":"VEC3"
		},
		{
			"bufferView":14,
			"componentType":5126,
			"count":24016,
			"type":"VEC2"
		},
		{
			"bufferView":15,
			"componentType":5126,
			"count":24016,
			"type":"VEC2"
		},
		{
			"bufferView":16,
			"componentType":5126,
			"count":24016,
			"type":"VEC2"
		},
		{
			"bufferView":17,
			"componentType":5123,
			"count":69510,
			"type":"SCALAR"
		}
	],
	"bufferViews":[
		{
			"buffer":0,
			"byteLength":29484,
			"byteOffset":0,
			"target":34962
		},
		{
			"buffer":0,
			"byteLength":29484,
			"byteOffset":29484,
			"target":34962
		},
		{
			"buffer":0,
			"byteLength":19656,
			"byteOffset":58968,
			"target":34962
		},
		{
			"buffer":0,
			"byteLength":19656,
			"byteOffset":78624,
			"target":34962
		},
		{
			"buffer":0,
			"byteLength":19656,
			"byteOffset":98280,
			"target":34962
		},
		{
			"buffer":0,
			"byteLength":15408,
			"byteOffset":117936,
			"target":34963
		},
		{
			"buffer":0,
			"byteLength":34476,
			"byteOffset":133344,
			"target":34962
		},
		{
			"buffer":0,
			"byteLength":34476,
			"byteOffset":167820,
			"target":34962
		},
		{
			"buffer":0,
			"byteLength":22984,
			"byteOffset":202296,
			"target":34962
		},
		{
			"buffer":0,
			"byteLength":22984,
			"byteOffset":225280,
			"target":34962
		},
		{
			"buffer":0,
			"byteLength":22984,
			"byteOffset":248264,
			"target":34962
		},
		{
			"buffer":0,
			"byteLength":14208,
			"byteOffset":271248,
			"target":34963
		},
		{
			"buffer":0,
			"byteLength":288192,
			"byteOffset":285456,
			"target":34962
		},
		{
			"buffer":0,
			"byteLength":288192,
			"byteOffset":573648,
			"target":34962
		},
		{
			"buffer":0,
			"byteLength":192128,
			"byteOffset":861840,
			"target":34962
		},
		{
			"buffer":0,
			"byteLength":192128,
			"byteOffset":1053968,
			"target":34962
		},
		{
			"buffer":0,
			"byteLength":192128,
			"byteOffset":1246096,
			"target":34962
		},
		{
			"buffer":0,
			"byteLength":139020,
			"byteOffset":1438224,
			"target":34963
		}
	],
	"buffers":[
		{
			"byteLength":1577244,
			"uri":"data:application/octet-stream;base64,"
		}
	]
}
