{
	"asset":{
		"generator":"Khronos glTF Blender I/O v4.2.69",
		"version":"2.0"
	},
	"extensionsUsed":[
		"KHR_lights_punctual",
		"KHR_materials_specular",
		"KHR_materials_ior"
	],
	"extensionsRequired":[
		"KHR_lights_punctual"
	],
	"extensions":{
		"KHR_lights_punctual":{
			"lights":[
				{
					"color":[
						1,
						1,
						1
					],
					"intensity":0.3978873577297384,
					"type":"point",
					"name":"Light"
				}
			]
		}
	},
	"scene":0,
	"scenes":[
		{
			"extras":{
				"uuid":"47e8aac4-d9cc-4fac-9ff9-584e07d1fbea",
				"assets reported":{},
				"assets used":{},
				"my_tool":{}
			},
			"name":"Scene",
			"nodes":[
				0,
				1,
				3
			]
		}
	],
	"nodes":[
		{
			"extensions":{
				"KHR_lights_punctual":{
					"light":0
				}
			},
			"name":"LIGHT - TURN",
			"rotation":[
				-0.7071068286895752,
				0,
				0,
				0.7071068286895752
			],
			"translation":[
				0,
				0.2679786682128906,
				0
			]
		},
		{
			"mesh":0,
			"name":"Display LCD 16x2.001",
			"rotation":[
				0.3534516990184784,
				0,
				0,
				0.9354527592658997
			]
		},
		{
			"camera":0,
			"name":"Camera",
			"rotation":[
				-0.7071067690849304,
				0,
				0,
				0.7071068286895752
			],
			"scale":[
				8.601129531860352,
				8.601127624511719,
				8.601127624511719
			],
			"translation":[
				0,
				11.960211753845215,
				0
			]
		},
		{
			"children":[
				2
			],
			"name":"Empty",
			"scale":[
				0.029835321009159088,
				0.029835321009159088,
				0.029835321009159088
			]
		}
	],
	"cameras":[
		{
			"name":"Camera",
			"perspective":{
				"aspectRatio":1,
				"yfov":0.6911112070083618,
				"zfar":1000,
				"znear":0.10000000149011612
			},
			"type":"perspective"
		}
	],
	"materials":[
		{
			"doubleSided":true,
			"extensions":{
				"KHR_materials_specular":{
					"specularFactor":0
				},
				"KHR_materials_ior":{
					"ior":1.4499999284744263
				}
			},
			"name":"plastico_branco.001",
			"pbrMetallicRoughness":{
				"baseColorFactor":[
					0.800000011920929,
					0.800000011920929,
					0.800000011920929,
					1
				],
				"metallicFactor":0,
				"roughnessFactor":0.5
			}
		},
		{
			"doubleSided":true,
			"extensions":{
				"KHR_materials_specular":{
					"specularFactor":0
				},
				"KHR_materials_ior":{
					"ior":1.4499999284744263
				}
			},
			"name":"Material.024",
			"pbrMetallicRoughness":{
				"baseColorFactor":[
					0.800000011920929,
					0.800000011920929,
					0.800000011920929,
					1
				],
				"metallicFactor":0,
				"roughnessFactor":0.5
			}
		},
		{
			"doubleSided":true,
			"extensions":{
				"KHR_materials_specular":{
					"specularFactor":0
				},
				"KHR_materials_ior":{
					"ior":1.4499999284744263
				}
			},
			"name":"Material.025",
			"pbrMetallicRoughness":{
				"baseColorFactor":[
					0.7356576323509216,
					0.7356576323509216,
					0.7356576323509216,
					1
				],
				"metallicFactor":0.5173227787017822,
				"roughnessFactor":0.5
			}
		},
		{
			"doubleSided":true,
			"extensions":{
				"KHR_materials_specular":{
					"specularFactor":0
				},
				"KHR_materials_ior":{
					"ior":1.4499999284744263
				}
			},
			"name":"metal.004",
			"pbrMetallicRoughness":{
				"baseColorFactor":[
					0.6738479733467102,
					0.6738479733467102,
					0.6738479733467102,
					1
				],
				"roughnessFactor":0.5
			}
		},
		{
			"doubleSided":true,
			"extensions":{
				"KHR_materials_specular":{
					"specularFactor":0
				}
			},
			"name":"Material.026",
			"pbrMetallicRoughness":{
				"baseColorFactor":[
					0.800000011920929,
					0.800000011920929,
					0.800000011920929,
					1
				],
				"metallicFactor":0.5,
				"roughnessFactor":0.5
			}
		},
		{
			"doubleSided":true,
			"extensions":{
				"KHR_materials_specular":{
					"specularFactor":0
				},
				"KHR_materials_ior":{
					"ior":1.4499999284744263
				}
			},
			"name":"CINZA",
			"pbrMetallicRoughness":{
				"baseColorFactor":[
					0.0110875703394413,
					0.0110875703394413,
					0.0110875703394413,
					1
				],
				"metallicFactor":0,
				"roughnessFactor":0.5
			}
		},
		{
			"doubleSided":true,
			"extensions":{
				"KHR_materials_specular":{
					"specularFactor":0
				},
				"KHR_materials_ior":{
					"ior":1.4499999284744263
				}
			},
			"name":"pcb verde",
			"pbrMetallicRoughness":{
				"baseColorFactor":[
					0.03560132905840874,
					0.19120170176029205,
					0.09758733212947845,
					1
				],
				"metallicFactor":0,
				"roughnessFactor":0.5
			}
		},
		{
			"doubleSided":true,
			"extensions":{
				"KHR_materials_specular":{
					"specularFactor":0
				},
				"KHR_materials_ior":{
					"ior":1.4499999284744263
				}
			},
			"name":"Contato PCB",
			"pbrMetallicRoughness":{
				"baseColorFactor":[
					0.6738469004631042,
					0.40527069568634033,
					0.0772162601351738,
					1
				],
				"roughnessFactor":0.5
			}
		},
		{
			"doubleSided":true,
			"extensions":{
				"KHR_materials_specular":{
					"specularFactor":0
				},
				"KHR_materials_ior":{
					"ior":1.4499999284744263
				}
			},
			"name":"plastico_preto.006",
			"pbrMetallicRoughness":{
				"baseColorFactor":[
					0,
					0,
					0,
					1
				],
				"metallicFactor":0.28727272152900696,
				"roughnessFactor":0.18000000715255737
			}
		},
		{
			"alphaMode":"BLEND",
			"doubleSided":true,
			"extensions":{
				"KHR_materials_specular":{
					"specularFactor":0
				},
				"KHR_materials_ior":{
					"ior":1.4499999284744263
				}
			},
			"name":"display_azul.001",
			"pbrMetallicRoughness":{
				"baseColorFactor":[
					0.02306200936436653,
					0.024084730073809624,
					0.8000001311302185,
					0.75
				],
				"roughnessFactor":0.5
			}
		},
		{
			"doubleSided":true,
			"extensions":{
				"KHR_materials_specular":{
					"specularFactor":0
				},
				"KHR_materials_ior":{
					"ior":1.4499999284744263
				}
			},
			"name":"metal_amarelo.001",
			"pbrMetallicRoughness":{
				"baseColorFactor":[
					0.8000001311302185,
					0.39968180656433105,
					0.03383124992251396,
					1
				],
				"metallicFactor":0.800000011920929,
				"roughnessFactor":0.5
			}
		},
		{
			"doubleSided":true,
			"extensions":{
				"KHR_materials_specular":{
					"specularFactor":0
				},
				"KHR_materials_ior":{
					"ior":1.4499999284744263
				}
			},
			"name":"metal_parafuso.020",
			"pbrMetallicRoughness":{
				"baseColorFactor":[
					0.7669180035591125,
					0.7752730250358582,
					0.8006550073623657,
					1
				],
				"roughnessFactor":0.5
			}
		},
		{
			"doubleSided":true,
			"extensions":{
				"KHR_materials_specular":{
					"specularFactor":0
				},
				"KHR_materials_ior":{
					"ior":1.4499999284744263
				}
			},
			"name":"plastico_preto.015",
			"pbrMetallicRoughness":{
				"baseColorFactor":[
					0.01599482074379921,
					0.01599482074379921,
					0.01599482074379921,
					1
				],
				"metallicFactor":0.5,
				"roughnessFactor":0.5
			}
		}
	],
	"meshes":[
		{
			"name":"Text.001",
			"primitives":[
				{
					"attributes":{
						"POSITION":0,
						"NORMAL":1,
						"TEXCOORD_0":2,
						"TEXCOORD_1":3
					},
					"indices":4,
					"material":0
				},
				{
					"attributes":{
						"POSITION":5,
						"NORMAL":6,
						"TEXCOORD_0":7,
						"TEXCOORD_1":8
					},
					"indices":9,
					"material":1
				},
				{
					"attributes":{
						"POSITION":10,
						"NORMAL":11,
						"TEXCOORD_0":12,
						"TEXCOORD_1":13
					},
					"indices":14,
					"material":2
				},
				{
					"attributes":{
						"POSITION":15,
						"NORMAL":16,
						"TEXCOORD_0":17,
						"TEXCOORD_1":18
					},
					"indices":19,
					"material":3
				},
				{
					"attributes":{
						"POSITION":20,
						"NORMAL":21,
						"TEXCOORD_0":22,
						"TEXCOORD_1":23
					},
					"indices":24,
					"material":4
				},
				{
					"attributes":{
						"POSITION":25,
						"NORMAL":26,
						"TEXCOORD_0":27,
						"TEXCOORD_1":28
					},
					"indices":29,
					"material":5
				},
				{
					"attributes":{
						"POSITION":30,
						"NORMAL":31,
						"TEXCOORD_0":32,
						"TEXCOORD_1":33
					},
					"indices":34,
					"material":6
				},
				{
					"attributes":{
						"POSITION":35,
						"NORMAL":36,
						"TEXCOORD_0":37,
						"TEXCOORD_1":38
					},
					"indices":39,
					"material":7
				},
				{
					"attributes":{
						"POSITION":40,
						"NORMAL":41,
						"TEXCOORD_0":42,
						"TEXCOORD_1":43
					},
					"indices":44,
					"material":8
				},
				{
					"attributes":{
						"POSITION":45,
						"NORMAL":46,
						"TEXCOORD_0":47,
						"TEXCOORD_1":48
					},
					"indices":49,
					"material":9
				},
				{
					"attributes":{
						"POSITION":50,
						"NORMAL":51,
						"TEXCOORD_0":52,
						"TEXCOORD_1":53
					},
					"indices":54,
					"material":10
				},
				{
					"attributes":{
						"POSITION":55,
						"NORMAL":56,
						"TEXCOORD_0":57,
						"TEXCOORD_1":58
					},
					"indices":59,
					"material":11
				},
				{
					"attributes":{
						"POSITION":60,
						"NORMAL":61,
						"TEXCOORD_0":62,
						"TEXCOORD_1":63
					},
					"indices":64,
					"material":12
				}
			]
		}
	],
	"accessors":[
		{
			"bufferView":0,
			"componentType":5126,
			"count":7376,
			"max":[
				0.00713048130273819,
				-0.0026731144171208143,
				-0.013809902593493462
			],
			"min":[
				-0.032436639070510864,
				-0.0026731144171208143,
				-0.014649255201220512
			],
			"type":"VEC3"
		},
		{
			"bufferView":1,
			"componentType":5126,
			"count":7376,
			"type":"VEC3"
		},
		{
			"bufferView":2,
			"componentType":5126,
			"count":7376,
			"type":"VEC2"
		},
		{
			"bufferView":3,
			"componentType":5126,
			"count":7376,
			"type":"VEC2"
		},
		{
			"bufferView":4,
			"componentType":5123,
			"count":20616,
			"type":"SCALAR"
		},
		{
			"bufferView":5,
			"componentType":5126,
			"count":611,
			"max":[
				0.009977668523788452,
				-0.0026731134857982397,
				-0.016346734017133713
			],
			"min":[
				-0.03379074111580849,
				-0.0026731134857982397,
				-0.01792268082499504
			],
			"type":"VEC3"
		},
		{
			"bufferView":6,
			"componentType":5126,
			"count":611,
			"type":"VEC3"
		},
		{
			"bufferView":7,
			"componentType":5126,
			"count":611,
			"type":"VEC2"
		},
		{
			"bufferView":8,
			"componentType":5126,
			"count":611,
			"type":"VEC2"
		},
		{
			"bufferView":9,
			"componentType":5123,
			"count":1662,
			"type":"SCALAR"
		},
		{
			"bufferView":10,
			"componentType":5126,
			"count":12,
			"max":[
				0.03884492069482803,
				0.0007779125589877367,
				0.007439626380801201
			],
			"min":[
				0.03599558025598526,
				-0.002683063503354788,
				-0.006492597982287407
			],
			"type":"VEC3"
		},
		{
			"bufferView":11,
			"componentType":5126,
			"count":12,
			"type":"VEC3"
		},
		{
			"bufferView":12,
			"componentType":5126,
			"count":12,
			"type":"VEC2"
		},
		{
			"bufferView":13,
			"componentType":5126,
			"count":12,
			"type":"VEC2"
		},
		{
			"bufferView":14,
			"componentType":5123,
			"count":18,
			"type":"SCALAR"
		},
		{
			"bufferView":15,
			"componentType":5126,
			"count":24743,
			"max":[
				0.04010733962059021,
				0.0007779125589877367,
				0.007439626380801201
			],
			"min":[
				-0.032083120197057724,
				-0.0047857630997896194,
				-0.017557542771100998
			],
			"type":"VEC3"
		},
		{
			"bufferView":16,
			"componentType":5126,
			"count":24743,
			"type":"VEC3"
		},
		{
			"bufferView":17,
			"componentType":5126,
			"count":24743,
			"type":"VEC2"
		},
		{
			"bufferView":18,
			"componentType":5126,
			"count":24743,
			"type":"VEC2"
		},
		{
			"bufferView":19,
			"componentType":5123,
			"count":127932,
			"type":"SCALAR"
		},
		{
			"bufferView":20,
			"componentType":5126,
			"count":4,
			"max":[
				0.03884492069482803,
				0.0007779125589877367,
				0.002282867208123207
			],
			"min":[
				0.03884492069482803,
				-0.002683063503354788,
				-0.0013358434662222862
			],
			"type":"VEC3"
		},
		{
			"bufferView":21,
			"componentType":5126,
			"count":4,
			"type":"VEC3"
		},
		{
			"bufferView":22,
			"componentType":5126,
			"count":4,
			"type":"VEC2"
		},
		{
			"bufferView":23,
			"componentType":5126,
			"count":4,
			"type":"VEC2"
		},
		{
			"bufferView":24,
			"componentType":5123,
			"count":6,
			"type":"SCALAR"
		},
		{
			"bufferView":25,
			"componentType":5126,
			"count":5120,
			"max":[
				0.029226042330265045,
				0.0043642641976475716,
				0.005347446538507938
			],
			"min":[
				-0.028928250074386597,
				0.0043642641976475716,
				-0.004001959227025509
			],
			"type":"VEC3"
		},
		{
			"bufferView":26,
			"componentType":5126,
			"count":5120,
			"type":"VEC3"
		},
		{
			"bufferView":27,
			"componentType":5126,
			"count":5120,
			"type":"VEC2"
		},
		{
			"bufferView":28,
			"componentType":5126,
			"count":5120,
			"type":"VEC2"
		},
		{
			"bufferView":29,
			"componentType":5123,
			"count":7680,
			"type":"SCALAR"
		},
		{
			"bufferView":30,
			"componentType":5126,
			"count":2577,
			"max":[
				0.040338486433029175,
				-0.002683065365999937,
				0.017563236877322197
			],
			"min":[
				-0.03926482051610947,
				-0.004275130107998848,
				-0.01825825497508049
			],
			"type":"VEC3"
		},
		{
			"bufferView":31,
			"componentType":5126,
			"count":2577,
			"type":"VEC3"
		},
		{
			"bufferView":32,
			"componentType":5126,
			"count":2577,
			"type":"VEC2"
		},
		{
			"bufferView":33,
			"componentType":5126,
			"count":2577,
			"type":"VEC2"
		},
		{
			"bufferView":34,
			"componentType":5123,
			"count":8253,
			"type":"SCALAR"
		},
		{
			"bufferView":35,
			"componentType":5126,
			"count":1906,
			"max":[
				0.040338486433029175,
				-0.002683065365999937,
				0.01743585616350174
			],
			"min":[
				-0.03915437310934067,
				-0.002683065365999937,
				-0.01815197989344597
			],
			"type":"VEC3"
		},
		{
			"bufferView":36,
			"componentType":5126,
			"count":1906,
			"type":"VEC3"
		},
		{
			"bufferView":37,
			"componentType":5126,
			"count":1906,
			"type":"VEC2"
		},
		{
			"bufferView":38,
			"componentType":5126,
			"count":1906,
			"type":"VEC2"
		},
		{
			"bufferView":39,
			"componentType":5123,
			"count":5544,
			"type":"SCALAR"
		},
		{
			"bufferView":40,
			"componentType":5126,
			"count":1211,
			"max":[
				0.03599558025598526,
				0.00527722854167223,
				0.013807067647576332
			],
			"min":[
				-0.03495088219642639,
				-0.0026830662973225117,
				-0.012859983369708061
			],
			"type":"VEC3"
		},
		{
			"bufferView":41,
			"componentType":5126,
			"count":1211,
			"type":"VEC3"
		},
		{
			"bufferView":42,
			"componentType":5126,
			"count":1211,
			"type":"VEC2"
		},
		{
			"bufferView":43,
			"componentType":5126,
			"count":1211,
			"type":"VEC2"
		},
		{
			"bufferView":44,
			"componentType":5123,
			"count":1596,
			"type":"SCALAR"
		},
		{
			"bufferView":45,
			"componentType":5126,
			"count":40,
			"max":[
				0.03315773606300354,
				0.004354310221970081,
				0.007963787764310837
			],
			"min":[
				-0.03211303800344467,
				0.004354310221970081,
				-0.007016702089458704
			],
			"type":"VEC3"
		},
		{
			"bufferView":46,
			"componentType":5126,
			"count":40,
			"type":"VEC3"
		},
		{
			"bufferView":47,
			"componentType":5126,
			"count":40,
			"type":"VEC2"
		},
		{
			"bufferView":48,
			"componentType":5126,
			"count":40,
			"type":"VEC2"
		},
		{
			"bufferView":49,
			"componentType":5123,
			"count":114,
			"type":"SCALAR"
		},
		{
			"bufferView":50,
			"componentType":5126,
			"count":2957,
			"max":[
				0.03995230793952942,
				-0.002683065365999937,
				0.016319407150149345
			],
			"min":[
				-0.03802105039358139,
				-0.004275130107998848,
				-0.017014427110552788
			],
			"type":"VEC3"
		},
		{
			"bufferView":51,
			"componentType":5126,
			"count":2957,
			"type":"VEC3"
		},
		{
			"bufferView":52,
			"componentType":5126,
			"count":2957,
			"type":"VEC2"
		},
		{
			"bufferView":53,
			"componentType":5126,
			"count":2957,
			"type":"VEC2"
		},
		{
			"bufferView":54,
			"componentType":5123,
			"count":8559,
			"type":"SCALAR"
		},
		{
			"bufferView":55,
			"componentType":5126,
			"count":950,
			"max":[
				0.006968051195144653,
				-0.0024883034639060497,
				-0.015387816354632378
			],
			"min":[
				-0.0316440686583519,
				-0.013507768511772156,
				-0.01602063700556755
			],
			"type":"VEC3"
		},
		{
			"bufferView":56,
			"componentType":5126,
			"count":950,
			"type":"VEC3"
		},
		{
			"bufferView":57,
			"componentType":5126,
			"count":950,
			"type":"VEC2"
		},
		{
			"bufferView":58,
			"componentType":5126,
			"count":950,
			"type":"VEC2"
		},
		{
			"bufferView":59,
			"componentType":5123,
			"count":1344,
			"type":"SCALAR"
		},
		{
			"bufferView":60,
			"componentType":5126,
			"count":1152,
			"max":[
				0.007915288209915161,
				-0.004275130107998848,
				-0.01444051880389452
			],
			"min":[
				-0.03259136900305748,
				-0.006762729492038488,
				-0.016967935487627983
			],
			"type":"VEC3"
		},
		{
			"bufferView":61,
			"componentType":5126,
			"count":1152,
			"type":"VEC3"
		},
		{
			"bufferView":62,
			"componentType":5126,
			"count":1152,
			"type":"VEC2"
		},
		{
			"bufferView":63,
			"componentType":5126,
			"count":1152,
			"type":"VEC2"
		},
		{
			"bufferView":64,
			"componentType":5123,
			"count":2304,
			"type":"SCALAR"
		}
	],
	"bufferViews":[
		{
			"buffer":0,
			"byteLength":88512,
			"byteOffset":0,
			"target":34962
		},
		{
			"buffer":0,
			"byteLength":88512,
			"byteOffset":88512,
			"target":34962
		},
		{
			"buffer":0,
			"byteLength":59008,
			"byteOffset":177024,
			"target":34962
		},
		{
			"buffer":0,
			"byteLength":59008,
			"byteOffset":236032,
			"target":34962
		},
		{
			"buffer":0,
			"byteLength":41232,
			"byteOffset":295040,
			"target":34963
		},
		{
			"buffer":0,
			"byteLength":7332,
			"byteOffset":336272,
			"target":34962
		},
		{
			"buffer":0,
			"byteLength":7332,
			"byteOffset":343604,
			"target":34962
		},
		{
			"buffer":0,
			"byteLength":4888,
			"byteOffset":350936,
			"target":34962
		},
		{
			"buffer":0,
			"byteLength":4888,
			"byteOffset":355824,
			"target":34962
		},
		{
			"buffer":0,
			"byteLength":3324,
			"byteOffset":360712,
			"target":34963
		},
		{
			"buffer":0,
			"byteLength":144,
			"byteOffset":364036,
			"target":34962
		},
		{
			"buffer":0,
			"byteLength":144,
			"byteOffset":364180,
			"target":34962
		},
		{
			"buffer":0,
			"byteLength":96,
			"byteOffset":364324,
			"target":34962
		},
		{
			"buffer":0,
			"byteLength":96,
			"byteOffset":364420,
			"target":34962
		},
		{
			"buffer":0,
			"byteLength":36,
			"byteOffset":364516,
			"target":34963
		},
		{
			"buffer":0,
			"byteLength":296916,
			"byteOffset":364552,
			"target":34962
		},
		{
			"buffer":0,
			"byteLength":296916,
			"byteOffset":661468,
			"target":34962
		},
		{
			"buffer":0,
			"byteLength":197944,
			"byteOffset":958384,
			"target":34962
		},
		{
			"buffer":0,
			"byteLength":197944,
			"byteOffset":1156328,
			"target":34962
		},
		{
			"buffer":0,
			"byteLength":255864,
			"byteOffset":1354272,
			"target":34963
		},
		{
			"buffer":0,
			"byteLength":48,
			"byteOffset":1610136,
			"target":34962
		},
		{
			"buffer":0,
			"byteLength":48,
			"byteOffset":1610184,
			"target":34962
		},
		{
			"buffer":0,
			"byteLength":32,
			"byteOffset":1610232,
			"target":34962
		},
		{
			"buffer":0,
			"byteLength":32,
			"byteOffset":1610264,
			"target":34962
		},
		{
			"buffer":0,
			"byteLength":12,
			"byteOffset":1610296,
			"target":34963
		},
		{
			"buffer":0,
			"byteLength":61440,
			"byteOffset":1610308,
			"target":34962
		},
		{
			"buffer":0,
			"byteLength":61440,
			"byteOffset":1671748,
			"target":34962
		},
		{
			"buffer":0,
			"byteLength":40960,
			"byteOffset":1733188,
			"target":34962
		},
		{
			"buffer":0,
			"byteLength":40960,
			"byteOffset":1774148,
			"target":34962
		},
		{
			"buffer":0,
			"byteLength":15360,
			"byteOffset":1815108,
			"target":34963
		},
		{
			"buffer":0,
			"byteLength":30924,
			"byteOffset":1830468,
			"target":34962
		},
		{
			"buffer":0,
			"byteLength":30924,
			"byteOffset":1861392,
			"target":34962
		},
		{
			"buffer":0,
			"byteLength":20616,
			"byteOffset":1892316,
			"target":34962
		},
		{
			"buffer":0,
			"byteLength":20616,
			"byteOffset":1912932,
			"target":34962
		},
		{
			"buffer":0,
			"byteLength":16506,
			"byteOffset":1933548,
			"target":34963
		},
		{
			"buffer":0,
			"byteLength":22872,
			"byteOffset":1950056,
			"target":34962
		},
		{
			"buffer":0,
			"byteLength":22872,
			"byteOffset":1972928,
			"target":34962
		},
		{
			"buffer":0,
			"byteLength":15248,
			"byteOffset":1995800,
			"target":34962
		},
		{
			"buffer":0,
			"byteLength":15248,
			"byteOffset":2011048,
			"target":34962
		},
		{
			"buffer":0,
			"byteLength":11088,
			"byteOffset":2026296,
			"target":34963
		},
		{
			"buffer":0,
			"byteLength":14532,
			"byteOffset":2037384,
			"target":34962
		},
		{
			"buffer":0,
			"byteLength":14532,
			"byteOffset":2051916,
			"target":34962
		},
		{
			"buffer":0,
			"byteLength":9688,
			"byteOffset":2066448,
			"target":34962
		},
		{
			"buffer":0,
			"byteLength":9688,
			"byteOffset":2076136,
			"target":34962
		},
		{
			"buffer":0,
			"byteLength":3192,
			"byteOffset":2085824,
			"target":34963
		},
		{
			"buffer":0,
			"byteLength":480,
			"byteOffset":2089016,
			"target":34962
		},
		{
			"buffer":0,
			"byteLength":480,
			"byteOffset":2089496,
			"target":34962
		},
		{
			"buffer":0,
			"byteLength":320,
			"byteOffset":2089976,
			"target":34962
		},
		{
			"buffer":0,
			"byteLength":320,
			"byteOffset":2090296,
			"target":34962
		},
		{
			"buffer":0,
			"byteLength":228,
			"byteOffset":2090616,
			"target":34963
		},
		{
			"buffer":0,
			"byteLength":35484,
			"byteOffset":2090844,
			"target":34962
		},
		{
			"buffer":0,
			"byteLength":35484,
			"byteOffset":2126328,
			"target":34962
		},
		{
			"buffer":0,
			"byteLength":23656,
			"byteOffset":2161812,
			"target":34962
		},
		{
			"buffer":0,
			"byteLength":23656,
			"byteOffset":2185468,
			"target":34962
		},
		{
			"buffer":0,
			"byteLength":17118,
			"byteOffset":2209124,
			"target":34963
		},
		{
			"buffer":0,
			"byteLength":11400,
			"byteOffset":2226244,
			"target":34962
		},
		{
			"buffer":0,
			"byteLength":11400,
			"byteOffset":2237644,
			"target":34962
		},
		{
			"buffer":0,
			"byteLength":7600,
			"byteOffset":2249044,
			"target":34962
		},
		{
			"buffer":0,
			"byteLength":7600,
			"byteOffset":2256644,
			"target":34962
		},
		{
			"buffer":0,
			"byteLength":2688,
			"byteOffset":2264244,
			"target":34963
		},
		{
			"buffer":0,
			"byteLength":13824,
			"byteOffset":2266932,
			"target":34962
		},
		{
			"buffer":0,
			"byteLength":13824,
			"byteOffset":2280756,
			"target":34962
		},
		{
			"buffer":0,
			"byteLength":9216,
			"byteOffset":2294580,
			"target":34962
		},
		{
			"buffer":0,
			"byteLength":9216,
			"byteOffset":2303796,
			"target":34962
		},
		{
			"buffer":0,
			"byteLength":4608,
			"byteOffset":2313012,
			"target":34963
		}
	],
	"buffers":[
		{
			"byteLength":2317620,
			"uri":"data:application/octet-stream;base64,"
		}
	]
}
