{
	"asset":{
		"generator":"Khronos glTF Blender I/O v4.2.69",
		"version":"2.0"
	},
	"extensionsUsed":[
		"KHR_lights_punctual"
	],
	"extensionsRequired":[
		"KHR_lights_punctual"
	],
	"extensions":{
		"KHR_lights_punctual":{
			"lights":[
				{
					"color":[
						1,
						1,
						1
					],
					"intensity":0.3978873577297384,
					"type":"point",
					"name":"Light"
				}
			]
		}
	},
	"scene":0,
	"scenes":[
		{
			"extras":{
				"uuid":"47e8aac4-d9cc-4fac-9ff9-584e07d1fbea",
				"assets reported":{},
				"assets used":{},
				"my_tool":{}
			},
			"name":"Scene",
			"nodes":[
				0,
				1,
				3
			]
		}
	],
	"nodes":[
		{
			"extensions":{
				"KHR_lights_punctual":{
					"light":0
				}
			},
			"name":"LIGHT - TURN",
			"rotation":[
				-0.7071068286895752,
				0,
				0,
				0.7071068286895752
			],
			"translation":[
				0,
				0.2679786682128906,
				0
			]
		},
		{
			"mesh":0,
			"name":"Object_6.003",
			"rotation":[
				0.3290148675441742,
				0,
				0,
				0.944324791431427
			],
			"scale":[
				0.013549440540373325,
				0.013549440540373325,
				0.013549440540373325
			],
			"translation":[
				-0.003739250125363469,
				-0.009829969145357609,
				-0.0019976655021309853
			]
		},
		{
			"camera":0,
			"name":"Camera",
			"rotation":[
				-0.7071067690849304,
				0,
				0,
				0.7071068286895752
			],
			"scale":[
				8.601129531860352,
				8.601127624511719,
				8.601127624511719
			],
			"translation":[
				0,
				11.960211753845215,
				0
			]
		},
		{
			"children":[
				2
			],
			"name":"Empty",
			"scale":[
				0.029835321009159088,
				0.029835321009159088,
				0.029835321009159088
			]
		}
	],
	"cameras":[
		{
			"name":"Camera",
			"perspective":{
				"aspectRatio":1,
				"yfov":0.6911112070083618,
				"zfar":1000,
				"znear":0.10000000149011612
			},
			"type":"perspective"
		}
	],
	"materials":[
		{
			"doubleSided":true,
			"name":"RFID_RC522_front",
			"pbrMetallicRoughness":{
				"baseColorTexture":{
					"index":0
				},
				"metallicFactor":0,
				"roughnessFactor":0.5
			}
		},
		{
			"doubleSided":true,
			"name":"FrontColor",
			"pbrMetallicRoughness":{
				"baseColorFactor":[
					0.2898330092430115,
					0.6981909871101379,
					0.484046995639801,
					1
				],
				"metallicFactor":0
			}
		},
		{
			"doubleSided":true,
			"name":"RFID_RC522_back",
			"pbrMetallicRoughness":{
				"baseColorTexture":{
					"index":1
				},
				"roughnessFactor":0.8695650100708008
			}
		},
		{
			"doubleSided":true,
			"name":"soldering",
			"pbrMetallicRoughness":{
				"baseColorFactor":[
					0.6627449989318848,
					0.6627449989318848,
					0.6627449989318848,
					1
				],
				"roughnessFactor":0
			}
		},
		{
			"doubleSided":true,
			"name":"material",
			"pbrMetallicRoughness":{
				"baseColorFactor":[
					0.01599469967186451,
					0.01599469967186451,
					0.01599469967186451,
					1
				],
				"roughnessFactor":0.7246379852294922
			}
		}
	],
	"meshes":[
		{
			"name":"Object_2.003",
			"primitives":[
				{
					"attributes":{
						"POSITION":0,
						"NORMAL":1,
						"TEXCOORD_0":2,
						"TEXCOORD_1":3,
						"TEXCOORD_2":4,
						"TEXCOORD_3":5
					},
					"indices":6,
					"material":0
				},
				{
					"attributes":{
						"POSITION":7,
						"NORMAL":8,
						"TEXCOORD_0":9,
						"TEXCOORD_1":10,
						"TEXCOORD_2":11,
						"TEXCOORD_3":12
					},
					"indices":13,
					"material":1
				},
				{
					"attributes":{
						"POSITION":14,
						"NORMAL":15,
						"TEXCOORD_0":16,
						"TEXCOORD_1":17,
						"TEXCOORD_2":18,
						"TEXCOORD_3":19
					},
					"indices":20,
					"material":2
				},
				{
					"attributes":{
						"POSITION":21,
						"NORMAL":22,
						"TEXCOORD_0":23,
						"TEXCOORD_1":24,
						"TEXCOORD_2":25,
						"TEXCOORD_3":26
					},
					"indices":27,
					"material":3
				},
				{
					"attributes":{
						"POSITION":28,
						"NORMAL":29,
						"TEXCOORD_0":30,
						"TEXCOORD_1":31,
						"TEXCOORD_2":32,
						"TEXCOORD_3":33
					},
					"indices":34,
					"material":4
				}
			]
		}
	],
	"textures":[
		{
			"sampler":0,
			"source":0
		},
		{
			"sampler":0,
			"source":1
		}
	],
	"images":[
		{
			"bufferView":7,
			"mimeType":"image/jpeg",
			"name":"RFID_RC522_front_baseColor"
		},
		{
			"bufferView":22,
			"mimeType":"image/jpeg",
			"name":"RFID_RC522_back_baseColor"
		}
	],
	"accessors":[
		{
			"bufferView":0,
			"componentType":5126,
			"count":415,
			"max":[
				2.0039002895355225,
				2.7390198707580566,
				0.06819592416286469
			],
			"min":[
				-1.89609956741333,
				-3.160980224609375,
				-0.37180405855178833
			],
			"type":"VEC3"
		},
		{
			"bufferView":1,
			"componentType":5126,
			"count":415,
			"type":"VEC3"
		},
		{
			"bufferView":2,
			"componentType":5126,
			"count":415,
			"type":"VEC2"
		},
		{
			"bufferView":3,
			"componentType":5126,
			"count":415,
			"type":"VEC2"
		},
		{
			"bufferView":4,
			"componentType":5126,
			"count":415,
			"type":"VEC2"
		},
		{
			"bufferView":5,
			"componentType":5126,
			"count":415,
			"type":"VEC2"
		},
		{
			"bufferView":6,
			"componentType":5123,
			"count":1173,
			"type":"SCALAR"
		},
		{
			"bufferView":8,
			"componentType":5126,
			"count":17,
			"max":[
				2.0039021968841553,
				2.7390213012695312,
				0.06820569932460785
			],
			"min":[
				-1.8960978984832764,
				-3.1609787940979004,
				-0.0717943012714386
			],
			"type":"VEC3"
		},
		{
			"bufferView":9,
			"componentType":5126,
			"count":17,
			"type":"VEC3"
		},
		{
			"bufferView":10,
			"componentType":5126,
			"count":17,
			"type":"VEC2"
		},
		{
			"bufferView":11,
			"componentType":5126,
			"count":17,
			"type":"VEC2"
		},
		{
			"bufferView":12,
			"componentType":5126,
			"count":17,
			"type":"VEC2"
		},
		{
			"bufferView":13,
			"componentType":5126,
			"count":17,
			"type":"VEC2"
		},
		{
			"bufferView":14,
			"componentType":5123,
			"count":27,
			"type":"SCALAR"
		},
		{
			"bufferView":15,
			"componentType":5126,
			"count":100,
			"max":[
				2.0039052963256836,
				2.7390201091766357,
				0.0682019293308258
			],
			"min":[
				-1.896094799041748,
				-3.160979986190796,
				0.0682019293308258
			],
			"type":"VEC3"
		},
		{
			"bufferView":16,
			"componentType":5126,
			"count":100,
			"type":"VEC3"
		},
		{
			"bufferView":17,
			"componentType":5126,
			"count":100,
			"type":"VEC2"
		},
		{
			"bufferView":18,
			"componentType":5126,
			"count":100,
			"type":"VEC2"
		},
		{
			"bufferView":19,
			"componentType":5126,
			"count":100,
			"type":"VEC2"
		},
		{
			"bufferView":20,
			"componentType":5126,
			"count":100,
			"type":"VEC2"
		},
		{
			"bufferView":21,
			"componentType":5123,
			"count":318,
			"type":"SCALAR"
		},
		{
			"bufferView":23,
			"componentType":5126,
			"count":2126,
			"max":[
				1.0275566577911377,
				3.2351999282836914,
				0.5182067155838013
			],
			"min":[
				-1.877103567123413,
				1.4942798614501953,
				-0.3717932105064392
			],
			"type":"VEC3"
		},
		{
			"bufferView":24,
			"componentType":5126,
			"count":2126,
			"type":"VEC3"
		},
		{
			"bufferView":25,
			"componentType":5126,
			"count":2126,
			"type":"VEC2"
		},
		{
			"bufferView":26,
			"componentType":5126,
			"count":2126,
			"type":"VEC2"
		},
		{
			"bufferView":27,
			"componentType":5126,
			"count":2126,
			"type":"VEC2"
		},
		{
			"bufferView":28,
			"componentType":5126,
			"count":2126,
			"type":"VEC2"
		},
		{
			"bufferView":29,
			"componentType":5123,
			"count":3378,
			"type":"SCALAR"
		},
		{
			"bufferView":30,
			"componentType":5126,
			"count":450,
			"max":[
				1.0367116928100586,
				2.739020347595215,
				0.3182043433189392
			],
			"min":[
				-1.0132853984832764,
				2.489020347595215,
				0.06820434331893921
			],
			"type":"VEC3"
		},
		{
			"bufferView":31,
			"componentType":5126,
			"count":450,
			"type":"VEC3"
		},
		{
			"bufferView":32,
			"componentType":5126,
			"count":450,
			"type":"VEC2"
		},
		{
			"bufferView":33,
			"componentType":5126,
			"count":450,
			"type":"VEC2"
		},
		{
			"bufferView":34,
			"componentType":5126,
			"count":450,
			"type":"VEC2"
		},
		{
			"bufferView":35,
			"componentType":5126,
			"count":450,
			"type":"VEC2"
		},
		{
			"bufferView":36,
			"componentType":5123,
			"count":936,
			"type":"SCALAR"
		}
	],
	"bufferViews":[
		{
			"buffer":0,
			"byteLength":4980,
			"byteOffset":0,
			"target":34962
		},
		{
			"buffer":0,
			"byteLength":4980,
			"byteOffset":4980,
			"target":34962
		},
		{
			"buffer":0,
			"byteLength":3320,
			"byteOffset":9960,
			"target":34962
		},
		{
			"buffer":0,
			"byteLength":3320,
			"byteOffset":13280,
			"target":34962
		},
		{
			"buffer":0,
			"byteLength":3320,
			"byteOffset":16600,
			"target":34962
		},
		{
			"buffer":0,
			"byteLength":3320,
			"byteOffset":19920,
			"target":34962
		},
		{
			"buffer":0,
			"byteLength":2346,
			"byteOffset":23240,
			"target":34963
		},
		{
			"buffer":0,
			"byteLength":102452,
			"byteOffset":25588
		},
		{
			"buffer":0,
			"byteLength":204,
			"byteOffset":128040,
			"target":34962
		},
		{
			"buffer":0,
			"byteLength":204,
			"byteOffset":128244,
			"target":34962
		},
		{
			"buffer":0,
			"byteLength":136,
			"byteOffset":128448,
			"target":34962
		},
		{
			"buffer":0,
			"byteLength":136,
			"byteOffset":128584,
			"target":34962
		},
		{
			"buffer":0,
			"byteLength":136,
			"byteOffset":128720,
			"target":34962
		},
		{
			"buffer":0,
			"byteLength":136,
			"byteOffset":128856,
			"target":34962
		},
		{
			"buffer":0,
			"byteLength":54,
			"byteOffset":128992,
			"target":34963
		},
		{
			"buffer":0,
			"byteLength":1200,
			"byteOffset":129048,
			"target":34962
		},
		{
			"buffer":0,
			"byteLength":1200,
			"byteOffset":130248,
			"target":34962
		},
		{
			"buffer":0,
			"byteLength":800,
			"byteOffset":131448,
			"target":34962
		},
		{
			"buffer":0,
			"byteLength":800,
			"byteOffset":132248,
			"target":34962
		},
		{
			"buffer":0,
			"byteLength":800,
			"byteOffset":133048,
			"target":34962
		},
		{
			"buffer":0,
			"byteLength":800,
			"byteOffset":133848,
			"target":34962
		},
		{
			"buffer":0,
			"byteLength":636,
			"byteOffset":134648,
			"target":34963
		},
		{
			"buffer":0,
			"byteLength":51860,
			"byteOffset":135284
		},
		{
			"buffer":0,
			"byteLength":25512,
			"byteOffset":187144,
			"target":34962
		},
		{
			"buffer":0,
			"byteLength":25512,
			"byteOffset":212656,
			"target":34962
		},
		{
			"buffer":0,
			"byteLength":17008,
			"byteOffset":238168,
			"target":34962
		},
		{
			"buffer":0,
			"byteLength":17008,
			"byteOffset":255176,
			"target":34962
		},
		{
			"buffer":0,
			"byteLength":17008,
			"byteOffset":272184,
			"target":34962
		},
		{
			"buffer":0,
			"byteLength":17008,
			"byteOffset":289192,
			"target":34962
		},
		{
			"buffer":0,
			"byteLength":6756,
			"byteOffset":306200,
			"target":34963
		},
		{
			"buffer":0,
			"byteLength":5400,
			"byteOffset":312956,
			"target":34962
		},
		{
			"buffer":0,
			"byteLength":5400,
			"byteOffset":318356,
			"target":34962
		},
		{
			"buffer":0,
			"byteLength":3600,
			"byteOffset":323756,
			"target":34962
		},
		{
			"buffer":0,
			"byteLength":3600,
			"byteOffset":327356,
			"target":34962
		},
		{
			"buffer":0,
			"byteLength":3600,
			"byteOffset":330956,
			"target":34962
		},
		{
			"buffer":0,
			"byteLength":3600,
			"byteOffset":334556,
			"target":34962
		},
		{
			"buffer":0,
			"byteLength":1872,
			"byteOffset":338156,
			"target":34963
		}
	],
	"samplers":[
		{
			"magFilter":9729,
			"minFilter":9987
		}
	],
	"buffers":[
		{
			"byteLength":340028,
			"uri":"data:application/octet-stream;base64,"
		}
	]
}
