{
	"asset":{
		"generator":"Khronos glTF Blender I/O v4.2.69",
		"version":"2.0"
	},
	"extensionsUsed":[
		"KHR_lights_punctual",
		"EXT_texture_webp"
	],
	"extensionsRequired":[
		"KHR_lights_punctual",
		"EXT_texture_webp"
	],
	"extensions":{
		"KHR_lights_punctual":{
			"lights":[
				{
					"color":[
						1,
						1,
						1
					],
					"intensity":0.3978873577297384,
					"type":"point",
					"name":"Light"
				}
			]
		}
	},
	"scene":0,
	"scenes":[
		{
			"extras":{
				"uuid":"47e8aac4-d9cc-4fac-9ff9-584e07d1fbea",
				"assets reported":{},
				"assets used":{},
				"my_tool":{}
			},
			"name":"Scene",
			"nodes":[
				0,
				1,
				2
			]
		}
	],
	"nodes":[
		{
			"extensions":{
				"KHR_lights_punctual":{
					"light":0
				}
			},
			"name":"LIGHT - TURN",
			"rotation":[
				-0.7071068286895752,
				0,
				0,
				0.7071068286895752
			],
			"translation":[
				0,
				0.2679786682128906,
				0
			]
		},
		{
			"mesh":0,
			"name":"WHITE CARD.001",
			"scale":[
				0.02878202497959137,
				0.02878202497959137,
				0.04263898730278015
			]
		},
		{
			"camera":0,
			"name":"Camera",
			"rotation":[
				-0.7071068286895752,
				0,
				0,
				0.7071068286895752
			],
			"scale":[
				0.2566174566745758,
				0.2566174268722534,
				0.2566174268722534
			],
			"translation":[
				0,
				0.3568367660045624,
				0
			]
		}
	],
	"cameras":[
		{
			"name":"Camera",
			"perspective":{
				"aspectRatio":1,
				"yfov":0.6911112070083618,
				"zfar":1000,
				"znear":0.10000000149011612
			},
			"type":"perspective"
		}
	],
	"materials":[
		{
			"doubleSided":true,
			"name":"numbers",
			"pbrMetallicRoughness":{
				"baseColorTexture":{
					"index":0
				},
				"metallicFactor":0
			}
		},
		{
			"doubleSided":true,
			"name":"WHITE PLASTIC",
			"pbrMetallicRoughness":{
				"metallicFactor":0
			}
		}
	],
	"meshes":[
		{
			"name":"Plane.007",
			"primitives":[
				{
					"attributes":{
						"POSITION":0,
						"NORMAL":1,
						"TEXCOORD_0":2
					},
					"indices":3,
					"material":0
				},
				{
					"attributes":{
						"POSITION":4,
						"NORMAL":5,
						"TEXCOORD_0":6
					},
					"indices":7,
					"material":1
				}
			]
		}
	],
	"textures":[
		{
			"extensions":{
				"EXT_texture_webp":{
					"source":0
				}
			},
			"sampler":0
		}
	],
	"images":[
		{
			"bufferView":4,
			"mimeType":"image/webp",
			"name":"rfid-card-keycardschlusselkarte-125khz-weiss-durchnummeriert-53"
		}
	],
	"accessors":[
		{
			"bufferView":0,
			"componentType":5126,
			"count":4,
			"max":[
				-0.7354519367218018,
				0.05211585387587547,
				0.92969810962677
			],
			"min":[
				-0.8865387439727783,
				0.05211585387587547,
				0.31078317761421204
			],
			"type":"VEC3"
		},
		{
			"bufferView":1,
			"componentType":5126,
			"count":4,
			"type":"VEC3"
		},
		{
			"bufferView":2,
			"componentType":5126,
			"count":4,
			"type":"VEC2"
		},
		{
			"bufferView":3,
			"componentType":5123,
			"count":6,
			"type":"SCALAR"
		},
		{
			"bufferView":5,
			"componentType":5126,
			"count":520,
			"max":[
				1,
				0.05211586132645607,
				1
			],
			"min":[
				-1,
				0,
				-1
			],
			"type":"VEC3"
		},
		{
			"bufferView":6,
			"componentType":5126,
			"count":520,
			"type":"VEC3"
		},
		{
			"bufferView":7,
			"componentType":5126,
			"count":520,
			"type":"VEC2"
		},
		{
			"bufferView":8,
			"componentType":5123,
			"count":3102,
			"type":"SCALAR"
		}
	],
	"bufferViews":[
		{
			"buffer":0,
			"byteLength":48,
			"byteOffset":0,
			"target":34962
		},
		{
			"buffer":0,
			"byteLength":48,
			"byteOffset":48,
			"target":34962
		},
		{
			"buffer":0,
			"byteLength":32,
			"byteOffset":96,
			"target":34962
		},
		{
			"buffer":0,
			"byteLength":12,
			"byteOffset":128,
			"target":34963
		},
		{
			"buffer":0,
			"byteLength":298284,
			"byteOffset":140
		},
		{
			"buffer":0,
			"byteLength":6240,
			"byteOffset":298424,
			"target":34962
		},
		{
			"buffer":0,
			"byteLength":6240,
			"byteOffset":304664,
			"target":34962
		},
		{
			"buffer":0,
			"byteLength":4160,
			"byteOffset":310904,
			"target":34962
		},
		{
			"buffer":0,
			"byteLength":6204,
			"byteOffset":315064,
			"target":34963
		}
	],
	"samplers":[
		{
			"magFilter":9729,
			"minFilter":9987
		}
	],
	"buffers":[
		{
			"byteLength":321268,
			"uri":"data:application/octet-stream;base64,"
		}
	]
}
