{
	"asset":{
		"generator":"Khronos glTF Blender I/O v4.2.69",
		"version":"2.0"
	},
	"extensionsUsed":[
		"KHR_lights_punctual"
	],
	"extensionsRequired":[
		"KHR_lights_punctual"
	],
	"extensions":{
		"KHR_lights_punctual":{
			"lights":[
				{
					"color":[
						1,
						1,
						1
					],
					"intensity":0.3978873577297384,
					"type":"point",
					"name":"Light"
				}
			]
		}
	},
	"scene":0,
	"scenes":[
		{
			"extras":{
				"uuid":"47e8aac4-d9cc-4fac-9ff9-584e07d1fbea",
				"assets reported":{},
				"assets used":{},
				"my_tool":{}
			},
			"name":"Scene",
			"nodes":[
				0,
				3,
				4
			]
		}
	],
	"nodes":[
		{
			"extensions":{
				"KHR_lights_punctual":{
					"light":0
				}
			},
			"name":"LIGHT - TURN",
			"rotation":[
				-0.7071068286895752,
				0,
				0,
				0.7071068286895752
			],
			"translation":[
				0,
				0.2679786682128906,
				0
			]
		},
		{
			"mesh":0,
			"name":"KEYRING.002",
			"rotation":[
				-0.25872668623924255,
				0,
				0,
				0.965950608253479
			],
			"scale":[
				1.6763423681259155,
				1.6763423681259155,
				1.6763423681259155
			],
			"translation":[
				0.07972350716590881,
				0.00158276641741395,
				0.0008367975242435932
			]
		},
		{
			"mesh":1,
			"name":"KEYRING.003",
			"rotation":[
				-0.6953991651535034,
				0,
				0,
				0.718623697757721
			],
			"scale":[
				2.744719982147217,
				2.7447192668914795,
				2.7447192668914795
			],
			"translation":[
				0.11174928396940231,
				0.0011631083907559514,
				-0.00419246219098568
			]
		},
		{
			"children":[
				1,
				2
			],
			"mesh":2,
			"name":"Circle.012",
			"scale":[
				0.6929734349250793,
				0.6929734349250793,
				0.6929734349250793
			],
			"translation":[
				-0.030142253264784813,
				0,
				0
			]
		},
		{
			"camera":0,
			"name":"Camera",
			"rotation":[
				-0.7071068286895752,
				0,
				0,
				0.7071068286895752
			],
			"scale":[
				0.2566174566745758,
				0.2566174268722534,
				0.2566174268722534
			],
			"translation":[
				0,
				0.3568367660045624,
				0
			]
		}
	],
	"cameras":[
		{
			"name":"Camera",
			"perspective":{
				"aspectRatio":1,
				"yfov":0.6911112070083618,
				"zfar":1000,
				"znear":0.10000000149011612
			},
			"type":"perspective"
		}
	],
	"materials":[
		{
			"doubleSided":true,
			"name":"Material.037",
			"pbrMetallicRoughness":{
				"baseColorFactor":[
					0.3708249032497406,
					0.3703382611274719,
					0.3759289085865021,
					1
				],
				"roughnessFactor":0.05000000074505806
			}
		},
		{
			"doubleSided":true,
			"name":"BLUE PLASTIC",
			"pbrMetallicRoughness":{
				"baseColorFactor":[
					0.005593618378043175,
					0,
					0.2418164610862732,
					1
				],
				"metallicFactor":0.06909091025590897,
				"roughnessFactor":0.3272727131843567
			}
		}
	],
	"meshes":[
		{
			"name":"inel hd_Material_0.002",
			"primitives":[
				{
					"attributes":{
						"POSITION":0,
						"NORMAL":1,
						"TEXCOORD_0":2
					},
					"indices":3,
					"material":0
				}
			]
		},
		{
			"name":"inel hd_Material_0.003",
			"primitives":[
				{
					"attributes":{
						"POSITION":4,
						"NORMAL":5,
						"TEXCOORD_0":6
					},
					"indices":3,
					"material":0
				}
			]
		},
		{
			"name":"Circle.007",
			"primitives":[
				{
					"attributes":{
						"POSITION":7,
						"NORMAL":8,
						"TEXCOORD_0":9
					},
					"indices":10,
					"material":1
				}
			]
		}
	],
	"accessors":[
		{
			"bufferView":0,
			"componentType":5126,
			"count":17263,
			"max":[
				0.012232634238898754,
				0.011552546173334122,
				0.0015063842292875051
			],
			"min":[
				-0.01226736605167389,
				-0.012913642451167107,
				-0.001505986088886857
			],
			"type":"VEC3"
		},
		{
			"bufferView":1,
			"componentType":5126,
			"count":17263,
			"type":"VEC3"
		},
		{
			"bufferView":2,
			"componentType":5126,
			"count":17263,
			"type":"VEC2"
		},
		{
			"bufferView":3,
			"componentType":5123,
			"count":99360,
			"type":"SCALAR"
		},
		{
			"bufferView":4,
			"componentType":5126,
			"count":17263,
			"max":[
				0.012232634238898754,
				0.011552546173334122,
				0.0015063842292875051
			],
			"min":[
				-0.01226736605167389,
				-0.012913642451167107,
				-0.001505986088886857
			],
			"type":"VEC3"
		},
		{
			"bufferView":5,
			"componentType":5126,
			"count":17263,
			"type":"VEC3"
		},
		{
			"bufferView":6,
			"componentType":5126,
			"count":17263,
			"type":"VEC2"
		},
		{
			"bufferView":7,
			"componentType":5126,
			"count":3213,
			"max":[
				0.0715310201048851,
				0.007365945260971785,
				0.05577762424945831
			],
			"min":[
				-0.0662078931927681,
				-0.005195608362555504,
				-0.055778034031391144
			],
			"type":"VEC3"
		},
		{
			"bufferView":8,
			"componentType":5126,
			"count":3213,
			"type":"VEC3"
		},
		{
			"bufferView":9,
			"componentType":5126,
			"count":3213,
			"type":"VEC2"
		},
		{
			"bufferView":10,
			"componentType":5123,
			"count":10392,
			"type":"SCALAR"
		}
	],
	"bufferViews":[
		{
			"buffer":0,
			"byteLength":207156,
			"byteOffset":0,
			"target":34962
		},
		{
			"buffer":0,
			"byteLength":207156,
			"byteOffset":207156,
			"target":34962
		},
		{
			"buffer":0,
			"byteLength":138104,
			"byteOffset":414312,
			"target":34962
		},
		{
			"buffer":0,
			"byteLength":198720,
			"byteOffset":552416,
			"target":34963
		},
		{
			"buffer":0,
			"byteLength":207156,
			"byteOffset":751136,
			"target":34962
		},
		{
			"buffer":0,
			"byteLength":207156,
			"byteOffset":958292,
			"target":34962
		},
		{
			"buffer":0,
			"byteLength":138104,
			"byteOffset":1165448,
			"target":34962
		},
		{
			"buffer":0,
			"byteLength":38556,
			"byteOffset":1303552,
			"target":34962
		},
		{
			"buffer":0,
			"byteLength":38556,
			"byteOffset":1342108,
			"target":34962
		},
		{
			"buffer":0,
			"byteLength":25704,
			"byteOffset":1380664,
			"target":34962
		},
		{
			"buffer":0,
			"byteLength":20784,
			"byteOffset":1406368,
			"target":34963
		}
	],
	"buffers":[
		{
			"byteLength":1427152,
			"uri":"data:application/octet-stream;base64,"
		}
	]
}
